<?xml version="1.0" encoding="UTF-8"?>
<svg version="1.1" xmlns="http://www.w3.org/2000/svg" width="200" height="200">
<path d="M0 0 C66 0 132 0 200 0 C200 65.67 200 131.34 200 199 C134 199 68 199 0 199 C0 133.33 0 67.66 0 0 Z " fill="#8576A6" transform="translate(0,1)"/>
<path d="M0 0 C10.93105601 6.41265448 22.07213529 16.12616346 26.140625 28.45703125 C27.47492978 34.28000487 27.34043351 40.18042612 27.3125 46.125 C27.30512817 47.98463379 27.30512817 47.98463379 27.29760742 49.88183594 C27.05337964 69.3649508 23.20760216 88.03707371 19 107 C12.70561294 101.37256786 7.97363284 92.05297879 7.0625 83.625 C7.041875 82.42875 7.02125 81.2325 7 80 C8.36125 79.4121875 8.36125 79.4121875 9.75 78.8125 C15.54744285 75.57931072 17.74833308 71.11166735 20 65 C22.14218817 54.52222251 21.0830885 43.56011292 20 33 C17.69 32.67 15.38 32.34 13 32 C13 31.67 13 31.34 13 31 C14.98 31 16.96 31 19 31 C19 30.34 19 29.68 19 29 C18.03320312 29.05800781 17.06640625 29.11601563 16.0703125 29.17578125 C7.70087595 29.46581123 0.90050874 29.27828388 -6 24 C-9.42350794 20.70160365 -12.85736075 17.28527851 -15 13 C-20.07091461 36.34378325 -20.07091461 36.34378325 -22.4375 60.0625 C-22.47746094 61.27035156 -22.51742187 62.47820312 -22.55859375 63.72265625 C-21.84366176 67.91725722 -19.98383767 69.08123044 -17 72 C-15.30398037 80.03765824 -17.08943904 87.9064243 -21 95 C-25.98906998 102.63951341 -35.03667823 108.76275953 -43 113 C-43.99 113 -44.98 113 -46 113 C-46 112.01 -46 111.02 -46 110 C-63.46840036 120.44539042 -80.26685276 134.04640696 -93 150 C-94.23822894 146.44538842 -93.74217867 144.13163866 -92.75390625 140.54296875 C-92.46918457 139.47739746 -92.18446289 138.41182617 -91.89111328 137.31396484 C-91.5970459 136.22035645 -91.30297852 135.12674805 -91 134 C-90.50258352 131.95600541 -90.01168514 129.9104135 -89.52734375 127.86328125 C-81.62420459 95.08879288 -72.26291371 62.48438084 -56.8125 32.375 C-56.3498877 31.46927246 -55.88727539 30.56354492 -55.41064453 29.63037109 C-44.75895357 9.66919943 -24.3893496 -12.30414226 0 0 Z " fill="#1A2540" transform="translate(114,31)"/>
<path d="M0 0 C1.96139306 1.88293734 3.81988208 3.77228615 5.5078125 5.90625 C10.78838614 12.48854644 15.45363227 15.46860637 23.91015625 16.45703125 C27.60338832 16.74986174 31.29636911 16.90240762 35 17 C35 17.66 35 18.32 35 19 C34.01 19.495 34.01 19.495 33 20 C33.99 20.33 34.98 20.66 36 21 C38.63617816 33.85136855 40.58312286 48.49453 33.6875 60.3125 C31.52460252 63.50899451 29.29839095 65.91680571 26 68 C25.01 68 24.02 68 23 68 C25.63919778 79.7606357 30.0783823 90.60724108 39 99 C39.99 99.495 39.99 99.495 41 100 C39.60213923 108.84698726 37.39537771 117.38361708 35 126 C31.53058454 125.54177532 28.32604951 125.10868317 25 124 C22.33927456 123.84944753 19.72415312 123.76190961 17.0625 123.75 C16.30557861 123.74605225 15.54865723 123.74210449 14.76879883 123.73803711 C9.02462456 123.79697976 3.91332787 124.69746295 -1.58203125 126.44140625 C-4.34387127 127.07944037 -5.4074734 127.12206008 -8 126 C-9.64746094 123.56323242 -9.64746094 123.56323242 -11.234375 120.35546875 C-11.80800781 119.20369141 -12.38164063 118.05191406 -12.97265625 116.86523438 C-13.26414551 116.26155029 -13.55563477 115.65786621 -13.85595703 115.03588867 C-14.74546737 113.19687099 -15.6577861 111.37064678 -16.57421875 109.54492188 C-21 100.54784049 -21 100.54784049 -21 96 C-19.4609375 94.47265625 -19.4609375 94.47265625 -17.375 93.0625 C-16.64539063 92.54558594 -15.91578125 92.02867187 -15.1640625 91.49609375 C-14.09285156 90.75552734 -14.09285156 90.75552734 -13 90 C-6.90168874 85.70910678 -3.42073946 80.32942227 -2 73 C-1.80860118 70.85906745 -1.68957921 68.71100069 -1.625 66.5625 C-1.57601562 65.45003906 -1.52703125 64.33757812 -1.4765625 63.19140625 C-1.69214864 59.80609546 -1.69214864 59.80609546 -4.50390625 57.72680664 C-7.64388094 54.29660542 -7.60162081 52.76026168 -7.4609375 48.1796875 C-7.44259857 47.5276535 -7.42425964 46.87561951 -7.40536499 46.2038269 C-7.1064322 38.761167 -5.90644198 31.45111509 -4.625 24.125 C-4.39998611 22.77621734 -4.17602533 21.42725856 -3.953125 20.078125 C-2.8265446 13.33784216 -1.56454233 6.65296036 0 0 Z " fill="#DC9F7A" transform="translate(98,43)"/>
<path d="M0 0 C0 0.99 0 1.98 0 3 C1.98 2.34 3.96 1.68 6 1 C6.41511841 1.79265259 6.41511841 1.79265259 6.83862305 2.60131836 C8.12044195 5.0473116 9.40396316 7.49240784 10.6875 9.9375 C11.12255859 10.76830078 11.55761719 11.59910156 12.00585938 12.45507812 C14.61406071 17.42032066 17.29017809 22.33126127 20.09301758 27.18969727 C21 29 21 29 21 31 C19.20856793 31.9795958 17.41684696 32.9586633 15.625 33.9375 C14.62726563 34.48277344 13.62953125 35.02804688 12.6015625 35.58984375 C11.07929654 36.4149759 9.54871217 37.22564391 8 38 C8.14415198 39.8126345 8.29042636 41.62510022 8.4375 43.4375 C8.51871094 44.44683594 8.59992188 45.45617187 8.68359375 46.49609375 C9.06051195 50.67011381 9.53718108 54.83462974 10 59 C-15.74 59 -41.48 59 -68 59 C-68 57.02 -68 55.04 -68 53 C-67.01 53.144375 -66.02 53.28875 -65 53.4375 C-60.36757284 53.45629281 -58.01657635 50.95835216 -54.79296875 47.890625 C-52.71712771 45.70172072 -50.86595855 43.36833201 -49 41 C-48.34 41 -47.68 41 -47 41 C-46.74863281 40.4328125 -46.49726562 39.865625 -46.23828125 39.28125 C-40.29782029 28.3373093 -13.33254462 0 0 0 Z " fill="#B8CEDA" transform="translate(68,141)"/>
<path d="M0 0 C12.3876608 4.29069815 23.45429924 15.27779148 33 24 C33.91104492 24.81645996 34.82208984 25.63291992 35.76074219 26.47412109 C38.32617878 28.78154115 40.847808 31.13108883 43.35083008 33.50598145 C44.35571115 34.44977772 45.3713959 35.38221949 46.39819336 36.30212402 C47.85631287 37.61443158 49.26882108 38.97686188 50.6796875 40.33984375 C51.51226074 41.11706787 52.34483398 41.89429199 53.20263672 42.69506836 C55 46 55 46 55 59 C33.88 59 12.76 59 -9 59 C-5.27272727 10.54545455 -5.27272727 10.54545455 0 0 Z " fill="#BCD1DD" transform="translate(145,141)"/>
<path d="M0 0 C2.92595245 1.37460853 5.44427348 2.9859618 8.0625 4.875 C13.38954712 8.48222231 19.65788543 11.48727798 26.1171875 12.25 C29.15034088 13.45822707 29.8528199 15.85523288 31.3125 18.6875 C33.51959122 22.76582074 35.19683066 25.49046016 39.0625 28.0625 C40.8046875 29.4140625 40.8046875 29.4140625 42 31 C42.22664506 34.87963012 41.09349726 38.30442558 40 42 C39.64500241 43.34771943 39.29498802 44.6967585 38.94921875 46.046875 C38.00490483 49.70926424 37.01302881 53.35604685 36 57 C32.53058454 56.54177532 29.32604951 56.10868317 26 55 C23.33927456 54.84944753 20.72415312 54.76190961 18.0625 54.75 C16.92711792 54.74407837 16.92711792 54.74407837 15.76879883 54.73803711 C10.02462456 54.79697976 4.91332787 55.69746295 -0.58203125 57.44140625 C-3.34387127 58.07944037 -4.4074734 58.12206008 -7 57 C-8.64746094 54.56323242 -8.64746094 54.56323242 -10.234375 51.35546875 C-10.80800781 50.20369141 -11.38164063 49.05191406 -11.97265625 47.86523438 C-12.26414551 47.26155029 -12.55563477 46.65786621 -12.85595703 46.03588867 C-13.74546737 44.19687099 -14.6577861 42.37064678 -15.57421875 40.54492188 C-20 31.54784049 -20 31.54784049 -20 27 C-18.4609375 25.47265625 -18.4609375 25.47265625 -16.375 24.0625 C-15.28058594 23.28712891 -15.28058594 23.28712891 -14.1640625 22.49609375 C-13.44992188 22.00238281 -12.73578125 21.50867188 -12 21 C-4.33069092 15.60372144 -1.904465 8.88750331 0 0 Z " fill="#E0A17D" transform="translate(97,112)"/>
<path d="M0 0 C4.2488833 1.49437911 5.31907964 3.93730405 7.234375 7.8828125 C8.09482422 9.63271484 8.09482422 9.63271484 8.97265625 11.41796875 C9.56536691 12.65351983 10.15781147 13.88919859 10.75 15.125 C11.35696314 16.36903166 11.96502409 17.61252833 12.57421875 18.85546875 C14.06037474 21.89855007 15.53505741 24.9466646 17 28 C17.87011719 27.80083984 17.87011719 27.80083984 18.7578125 27.59765625 C33.32631074 24.30411787 47.51323888 22.26526624 61 30 C61.78117187 30.34804687 62.56234375 30.69609375 63.3671875 31.0546875 C65.41515277 33.49460785 65.18006592 34.33826949 64.98828125 37.45703125 C64.7846137 39.24477973 64.55839648 41.03006907 64.3125 42.8125 C64.15491211 44.14764648 64.15491211 44.14764648 63.99414062 45.50976562 C63.44738295 50.03477241 62.74987536 54.50074784 62 59 C42.86 59 23.72 59 4 59 C1 43 1 43 1 38 C3.30078125 35.98046875 3.30078125 35.98046875 6.3125 34.1875 C7.29863281 33.58292969 8.28476563 32.97835937 9.30078125 32.35546875 C12 31 12 31 15 31 C14.65219482 30.33468262 14.30438965 29.66936523 13.94604492 28.98388672 C12.35931606 25.94787678 10.77340098 22.91144247 9.1875 19.875 C8.64029297 18.82828125 8.09308594 17.7815625 7.52929688 16.703125 C6.01557645 13.80412103 4.50700494 10.90249901 3 8 C2.65146973 7.33645508 2.30293945 6.67291016 1.94384766 5.98925781 C0 2.22955247 0 2.22955247 0 0 Z " fill="#7E729E" transform="translate(74,141)"/>
<path d="M0 0 C2.92595245 1.37460853 5.44427348 2.9859618 8.0625 4.875 C13.52742725 8.57558816 19.65827078 11.20492571 26.17578125 12.3984375 C28.56675571 13.18689589 29.14311889 14.14976137 30.375 16.3125 C30.91253906 17.20388672 30.91253906 17.20388672 31.4609375 18.11328125 C32 20 32 20 31.3828125 22.03125 C29.70142597 24.42508845 27.96859867 25.62859597 25.5 27.1875 C24.30890625 27.95126953 24.30890625 27.95126953 23.09375 28.73046875 C21 30 21 30 19 31 C19 31.99 19 32.98 19 34 C16.525 34.495 16.525 34.495 14 35 C13.67 33.68 13.34 32.36 13 31 C12.443125 30.98582031 11.88625 30.97164062 11.3125 30.95703125 C4.32868321 30.5205427 -0.70392921 28.40807319 -5.609375 23.3359375 C-6.79242914 21.9335531 -7.90463587 20.47189555 -9 19 C-8.4225 18.38125 -7.845 17.7625 -7.25 17.125 C-3.57056912 12.01467933 -1.40111733 6.12811923 0 0 Z " fill="#E4A57F" transform="translate(97,112)"/>
<path d="M0 0 C1.51806641 2.45263672 1.51806641 2.45263672 3.1015625 5.6796875 C3.96007812 7.41412109 3.96007812 7.41412109 4.8359375 9.18359375 C5.43233879 10.41403966 6.02869244 11.64450866 6.625 12.875 C7.22829108 14.09808852 7.83244791 15.32075043 8.4375 16.54296875 C12.81658006 25.44974019 12.81658006 25.44974019 14 29 C12.25318707 29.98484108 10.5024149 30.96266187 8.75 31.9375 C7.77546875 32.48277344 6.8009375 33.02804688 5.796875 33.58984375 C3.43643148 34.77995563 1.54222515 35.42633309 -1 36 C-4.86142215 16.87556207 -4.86142215 16.87556207 -6.25 9.5 C-6.39953125 8.7059375 -6.5490625 7.911875 -6.703125 7.09375 C-7 5 -7 5 -7 1 C-3.375 -1.125 -3.375 -1.125 0 0 Z " fill="#E3A580" transform="translate(75,143)"/>
<path d="M0 0 C12.57274511 0 24.87862879 6.89350532 35 14 C35 14.33 35 14.66 35 15 C22.79 15 10.58 15 -2 15 C-2 3 -2 3 0 0 Z " fill="#8AA6B7" transform="translate(151,185)"/>
<path d="M0 0 C1.34191406 0.75796875 1.34191406 0.75796875 2.7109375 1.53125 C9.90525468 5.4475355 15.57353428 8.22319664 24 7 C24.50471197 8.76949612 25.00360685 10.54065223 25.5 12.3125 C25.7784375 13.29863281 26.056875 14.28476563 26.34375 15.30078125 C27 18 27 18 27 21 C19.71727712 19.98133104 14.16794266 17.9832331 8 14 C7.22785156 13.54496094 6.45570312 13.08992188 5.66015625 12.62109375 C0.26159447 9.13906884 0.26159447 9.13906884 -0.49609375 5.83984375 C-0.5 3.625 -0.5 3.625 0 0 Z " fill="#C79476" transform="translate(97,104)"/>
<path d="M0 0 C0.99 0.33 1.98 0.66 3 1 C1.35 10.24 -0.3 19.48 -2 29 C-3.32 28.34 -4.64 27.68 -6 27 C-5.37547911 20.79786153 -4.0842258 15.00570586 -2.4375 9 C-2.20353516 8.12988281 -1.96957031 7.25976562 -1.72851562 6.36328125 C-1.15709256 4.24085272 -0.58085043 2.11986406 0 0 Z " fill="#D89D80" transform="translate(141,145)"/>
<path d="M0 0 C4.2488833 1.49437911 5.31907964 3.93730405 7.234375 7.8828125 C8.09482422 9.63271484 8.09482422 9.63271484 8.97265625 11.41796875 C9.56536691 12.65351983 10.15781147 13.88919859 10.75 15.125 C11.35696314 16.36903166 11.96502409 17.61252833 12.57421875 18.85546875 C14.06037474 21.89855007 15.53505741 24.9466646 17 28 C16.01 28.33 15.02 28.66 14 29 C12.41524955 26.00074658 10.83246479 23.00045992 9.25 20 C8.8065625 19.16082031 8.363125 18.32164062 7.90625 17.45703125 C6.59771482 14.97466303 5.29631708 12.48876901 4 10 C3.59716797 9.22785156 3.19433594 8.45570313 2.77929688 7.66015625 C0 2.23881173 0 2.23881173 0 0 Z " fill="#907CA2" transform="translate(74,141)"/>
<path d="M0 0 C4.67775468 1.81912682 4.67775468 1.81912682 6.81640625 3.01953125 C12.83441588 5.72171446 20.0803754 5.63533742 26.25 3.5625 C27.50930405 3.06458368 28.76370827 2.55258494 30 2 C27.8092961 4.29113732 25.90542812 5.6975667 23 7 C23 7.99 23 8.98 23 10 C21.35 10.33 19.7 10.66 18 11 C17.67 9.68 17.34 8.36 17 7 C16.443125 6.98582031 15.88625 6.97164062 15.3125 6.95703125 C9.14979416 6.57186213 4.82826343 4.89418522 0 1 C0 0.67 0 0.34 0 0 Z " fill="#F0CCB6" transform="translate(93,136)"/>
<path d="M0 0 C1.32 1.65 2.64 3.3 4 5 C4.763125 5.86625 5.52625 6.7325 6.3125 7.625 C6.869375 8.40875 7.42625 9.1925 8 10 C7.67 10.99 7.34 11.98 7 13 C4.69 13.33 2.38 13.66 0 14 C0 9.38 0 4.76 0 0 Z " fill="#C6866E" transform="translate(122,74)"/>
<path d="M0 0 C0.66 0 1.32 0 2 0 C2 1.98 2 3.96 2 6 C-0.31 6 -2.62 6 -5 6 C-3.38405168 3.95880212 -1.7143618 1.95927063 0 0 Z " fill="#22304C" transform="translate(53,194)"/>
<path d="M0 0 C2.02054804 1.64169528 4.02043058 3.30911778 6 5 C6 5.33 6 5.66 6 6 C4.35 6 2.7 6 1 6 C0.67 4.02 0.34 2.04 0 0 Z " fill="#877AA8" transform="translate(159,194)"/>
</svg>
