<?xml version="1.0" encoding="UTF-8"?>
<svg version="1.1" xmlns="http://www.w3.org/2000/svg" width="199" height="200">
<path d="M0 0 C65.67 0 131.34 0 199 0 C199 65.67 199 131.34 199 199 C133.33 199 67.66 199 0 199 C0 133.33 0 67.66 0 0 Z " fill="#6CFEAF" transform="translate(0,0)"/>
<path d="M0 0 C0.99 0.33 1.98 0.66 3 1 C3 2.32 3 3.64 3 5 C3.94875 5.020625 4.8975 5.04125 5.875 5.0625 C12.29289532 6.01281716 17.56032176 10.32623749 21.83203125 15.0078125 C29.57435213 25.63145279 30.63096908 37.32803759 30 50 C29.01 50 28.02 50 27 50 C27.05220703 51.51013672 27.05220703 51.51013672 27.10546875 53.05078125 C27.51401673 70.27615974 26.53545099 93.52226038 14.52734375 107.09375 C9.06102054 113.91616874 7.55159522 121.01320398 5.75 129.4375 C5.481875 130.64599609 5.21375 131.85449219 4.9375 133.09960938 C4.28128577 136.06429153 3.6358063 139.03088651 3 142 C-10.09533141 142.55633761 -20.6666145 135.37290076 -31.14990234 128.25146484 C-33.13725109 126.907159 -35.13913641 125.58675019 -37.14453125 124.26953125 C-38.51331358 123.36763164 -39.88181002 122.46529796 -41.25 121.5625 C-41.89445068 121.13743164 -42.53890137 120.71236328 -43.20288086 120.27441406 C-45.65703977 118.63896917 -47.90893998 117.09106002 -50 115 C-50.27706374 107.87550393 -48.38669502 100.69322517 -46.83203125 93.79296875 C-45.90867958 89.58369893 -45.09675237 85.36194468 -44.3125 81.125 C-44.18117676 80.41641846 -44.04985352 79.70783691 -43.91455078 78.9777832 C-43.60820686 77.31879725 -43.30387159 75.65944058 -43 74 C-44.83691406 74.02320312 -44.83691406 74.02320312 -46.7109375 74.046875 C-53.83293567 74.04060287 -60.59343636 72.99067413 -66 68 C-66.86165452 64.84060009 -66.56489599 63.09213224 -65.0625 60.1875 C-61.96164409 55.61004604 -58.32438766 52.74185213 -53.875 49.5 C-47.42118927 44.6008423 -46.21641232 39.56175549 -44.765625 31.84375 C-43.07762543 23.36930319 -39.31406564 17.25726286 -32.66796875 11.7578125 C-24.59514294 6.4389668 -15.25110052 3.80741756 -5.625 3.9375 C-4.31402344 3.95103516 -4.31402344 3.95103516 -2.9765625 3.96484375 C-2.32429688 3.97644531 -1.67203125 3.98804688 -1 4 C-0.67 2.68 -0.34 1.36 0 0 Z " fill="#F3904D" transform="translate(110,28)"/>
<path d="M0 0 C0.556875 0.226875 1.11375 0.45375 1.6875 0.6875 C1.6875 1.3475 1.6875 2.0075 1.6875 2.6875 C2.5125 2.81125 3.3375 2.935 4.1875 3.0625 C5.3425 3.26875 6.4975 3.475 7.6875 3.6875 C8.863125 3.8525 10.03875 4.0175 11.25 4.1875 C15.98989825 5.39271132 19.55409193 8.18334303 23.47558594 11.01220703 C34.19306231 18.71635504 45.31893499 25.49387812 58.6875 26.6875 C58.6875 25.6975 58.6875 24.7075 58.6875 23.6875 C65.74085061 25.85052752 72.17022863 28.67611946 78.75 32 C79.77552979 32.51618896 80.80105957 33.03237793 81.85766602 33.56420898 C89.73460119 37.58258924 97.46433254 41.83423146 105.125 46.25 C106.1672876 46.84530518 107.2095752 47.44061035 108.28344727 48.05395508 C109.24049561 48.61493896 110.19754395 49.17592285 111.18359375 49.75390625 C112.03107178 50.24834229 112.8785498 50.74277832 113.75170898 51.25219727 C115.6875 52.6875 115.6875 52.6875 116.6875 55.6875 C60.5875 55.6875 4.4875 55.6875 -53.3125 55.6875 C-46.54881074 43.28740302 -18.81527518 -2.54260475 0 0 Z " fill="#0063C7" transform="translate(54.3125,143.3125)"/>
<path d="M0 0 C0.99 0.33 1.98 0.66 3 1 C3 2.32 3 3.64 3 5 C3.94875 5.020625 4.8975 5.04125 5.875 5.0625 C12.31329216 6.01583738 17.72870562 10.34382101 21.8671875 15.18359375 C23.40857069 17.39597709 24.73489951 19.62010799 26 22 C26.50853516 22.88558594 26.50853516 22.88558594 27.02734375 23.7890625 C30.27443894 30.58252434 29.24028435 38.66687767 29 46 C25.6620111 46.75297441 22.60714911 47.11353954 19.1875 47.0625 C18.00220703 47.04896484 18.00220703 47.04896484 16.79296875 47.03515625 C16.20128906 47.02355469 15.60960938 47.01195312 15 47 C15 46.34 15 45.68 15 45 C14.34 45 13.68 45 13 45 C13 45.66 13 46.32 13 47 C11.68 47 10.36 47 9 47 C9 46.34 9 45.68 9 45 C8.34 45 7.68 45 7 45 C7 45.66 7 46.32 7 47 C5.68 47 4.36 47 3 47 C3 46.34 3 45.68 3 45 C2.01 45 1.02 45 0 45 C0 45.66 0 46.32 0 47 C-8.25 47 -16.5 47 -25 47 C-24.88197405 52.04090964 -24.88197405 52.04090964 -24.72973633 57.08081055 C-24.6764199 61.61500044 -25.27173414 64.36947299 -28 68 C-28.99 67.67 -29.98 67.34 -31 67 C-31.84375 64.78515625 -31.84375 64.78515625 -32.5 62.0625 C-33.46616325 57.7309215 -33.46616325 57.7309215 -37 55 C-41.82708113 54.39562583 -41.82708113 54.39562583 -45.9375 56.5625 C-47.39859421 59.91442201 -47.3879235 62.37938067 -47 66 C-46.14782671 68.44202118 -46.14782671 68.44202118 -44 70 C-41.33781606 70.91889978 -38.77809992 71.45348854 -36 72 C-36 72.66 -36 73.32 -36 74 C-39.33455608 73.9475585 -42.66663231 73.85235976 -46 73.75 C-47.40185547 73.72873047 -47.40185547 73.72873047 -48.83203125 73.70703125 C-55.1033996 73.48775264 -61.30583911 72.69416089 -66 68 C-66.68990208 63.95914495 -66.02110001 61.53343785 -63.75 58.25 C-60.89323668 54.61411941 -57.59845714 52.21293454 -53.875 49.5 C-47.42118927 44.6008423 -46.21641232 39.56175549 -44.765625 31.84375 C-43.07762543 23.36930319 -39.31406564 17.25726286 -32.66796875 11.7578125 C-24.59514294 6.4389668 -15.25110052 3.80741756 -5.625 3.9375 C-4.31402344 3.95103516 -4.31402344 3.95103516 -2.9765625 3.96484375 C-2.32429688 3.97644531 -1.67203125 3.98804688 -1 4 C-0.67 2.68 -0.34 1.36 0 0 Z " fill="#F32B21" transform="translate(110,28)"/>
<path d="M0 0 C0.66 0.66 1.32 1.32 2 2 C4.12523208 2.46160295 4.12523208 2.46160295 6.5703125 2.6328125 C7.46621094 2.71660156 8.36210938 2.80039063 9.28515625 2.88671875 C10.22230469 2.96535156 11.15945312 3.04398437 12.125 3.125 C13.06988281 3.21136719 14.01476562 3.29773438 14.98828125 3.38671875 C17.32492418 3.59914083 19.6619967 3.80321542 22 4 C22.08126109 6.72977064 22.14061663 9.4571017 22.1875 12.1875 C22.21263672 12.95642578 22.23777344 13.72535156 22.26367188 14.51757812 C22.32421425 19.2197028 21.96375211 22.11834041 19 26 C18.01 25.67 17.02 25.34 16 25 C15.15625 22.78515625 15.15625 22.78515625 14.5 20.0625 C13.53383675 15.7309215 13.53383675 15.7309215 10 13 C5.17291887 12.39562583 5.17291887 12.39562583 1.0625 14.5625 C-0.39859421 17.91442201 -0.3879235 20.37938067 0 24 C0.85217329 26.44202118 0.85217329 26.44202118 3 28 C5.66218394 28.91889978 8.22190008 29.45348854 11 30 C11 30.66 11 31.32 11 32 C7.66544392 31.9475585 4.33336769 31.85235976 1 31.75 C0.06542969 31.73582031 -0.86914062 31.72164062 -1.83203125 31.70703125 C-8.1033996 31.48775264 -14.30583911 30.69416089 -19 26 C-19.68990208 21.95914495 -19.02110001 19.53343785 -16.75 16.25 C-12.95273543 11.51028182 -8.24189556 7.85990844 -3.51171875 4.1015625 C-0.95827541 2.24905012 -0.95827541 2.24905012 0 0 Z " fill="#D3291F" transform="translate(63,70)"/>
<path d="M0 0 C0.99 0.33 1.98 0.66 3 1 C3 2.32 3 3.64 3 5 C4.134375 5.12375 5.26875 5.2475 6.4375 5.375 C7.613125 5.58125 8.78875 5.7875 10 6 C10.495 6.99 10.495 6.99 11 8 C5.69750536 10.46769943 0.35558474 10.70057503 -5.40625 11.2421875 C-10.85137412 12.39039845 -13.57455127 15.15756863 -16.625 19.625 C-19.33452652 22.95000643 -21.485018 23.5966497 -25.6875 24.25 C-27.08548828 24.38148437 -27.08548828 24.38148437 -28.51171875 24.515625 C-31.45970697 25.0894877 -32.32016965 25.52446054 -34 28 C-34.90404342 31.08280683 -34.90404342 31.08280683 -35.5 34.5 C-36.8924845 41.86027522 -36.8924845 41.86027522 -40 44 C-43.1875 44.1875 -43.1875 44.1875 -46 44 C-46.80179898 33.73251864 -44.26547659 24.8036298 -37.68359375 16.77734375 C-30.6458778 9.34773642 -21.248493 4.87221217 -11 4 C-7.66464425 3.93440299 -4.33535923 3.94067543 -1 4 C-0.67 2.68 -0.34 1.36 0 0 Z " fill="#F15A52" transform="translate(110,28)"/>
<path d="M0 0 C0.556875 0.226875 1.11375 0.45375 1.6875 0.6875 C-1.78711271 13.03573901 -14.60254663 21.77841165 -24.453125 29.328125 C-32.97575702 36.00802577 -37.04858175 45.6346318 -40.3125 55.6875 C-44.6025 55.6875 -48.8925 55.6875 -53.3125 55.6875 C-46.70532878 42.81198686 -18.65057253 -2.52034764 0 0 Z " fill="#1073D0" transform="translate(54.3125,143.3125)"/>
<path d="M0 0 C5.12583611 -0.10251672 9.94997778 -0.03590199 15 1 C14.34 1.66 13.68 2.32 13 3 C12.79467193 5.30578288 12.79467193 5.30578288 12.9375 7.875 C13.05050186 11.16679337 12.88445399 13.83180661 12 17 C11.53197454 21.68025456 12.21513092 24.82629159 14.0625 29.0625 C15.85288269 33.26958299 16.31067187 35.50626787 15 40 C14.63507063 41.78950552 14.2816534 43.58138301 13.9375 45.375 C13.62594465 46.91685785 13.31376521 48.45859034 13 50 C11.37284844 49.04532436 9.74834654 48.08613152 8.125 47.125 C7.22007813 46.59132812 6.31515625 46.05765625 5.3828125 45.5078125 C3 44 3 44 1 42 C0.72293626 34.87550393 2.61330498 27.69322517 4.16796875 20.79296875 C5.09132042 16.58369893 5.90324763 12.36194468 6.6875 8.125 C6.81882324 7.41641846 6.95014648 6.70783691 7.08544922 5.9777832 C7.39179314 4.31879725 7.69612841 2.65944058 8 1 C5.36 1 2.72 1 0 1 C0 0.67 0 0.34 0 0 Z " fill="#F27E31" transform="translate(59,101)"/>
<path d="M0 0 C3.1875 2.25 3.1875 2.25 5 5 C5.433125 5.639375 5.86625 6.27875 6.3125 6.9375 C7.22558643 9.6767593 7.13022431 12.13506519 7 15 C4.1191123 15.9602959 2.28228827 16.12875585 -0.7109375 16.1328125 C-1.62617187 16.13410156 -2.54140625 16.13539062 -3.484375 16.13671875 C-4.43828125 16.13285156 -5.3921875 16.12898438 -6.375 16.125 C-7.79425781 16.13080078 -7.79425781 16.13080078 -9.2421875 16.13671875 C-10.16 16.13542969 -11.0778125 16.13414063 -12.0234375 16.1328125 C-12.85794434 16.13168457 -13.69245117 16.13055664 -14.55224609 16.12939453 C-17.11659896 15.99383628 -19.4973604 15.56215884 -22 15 C-21.53498083 10.25680447 -20.95797979 6.80311687 -18 3 C-12.41849437 -1.07727007 -6.66832361 -0.92449159 0 0 Z " fill="#221B16" transform="translate(125,55)"/>
<path d="M0 0 C7.05335061 2.16302752 13.48272863 4.98861946 20.0625 8.3125 C21.08802979 8.82868896 22.11355957 9.34487793 23.17016602 9.87670898 C31.04710119 13.89508924 38.77683254 18.14673146 46.4375 22.5625 C47.4797876 23.15780518 48.5220752 23.75311035 49.59594727 24.36645508 C50.55299561 24.92743896 51.51004395 25.48842285 52.49609375 26.06640625 C53.34357178 26.56084229 54.1910498 27.05527832 55.06420898 27.56469727 C57 29 57 29 58 32 C51.55390335 31.24163569 51.55390335 31.24163569 48.671875 29.984375 C45.51080149 28.81976897 42.79672348 28.78550897 39.4375 28.625 C32.04042836 27.68973807 29.00785838 24.82803766 24.26391602 19.52685547 C20.67954241 15.53648873 17.43404809 13.3508892 12.46875 11.21484375 C7.82560143 8.93000324 3.7180226 5.58354093 0 2 C0 1.34 0 0.68 0 0 Z " fill="#1173CF" transform="translate(113,167)"/>
<path d="M0 0 C0.66 0.66 1.32 1.32 2 2 C4.12523208 2.46160295 4.12523208 2.46160295 6.5703125 2.6328125 C7.91416016 2.75849609 7.91416016 2.75849609 9.28515625 2.88671875 C10.22230469 2.96535156 11.15945312 3.04398437 12.125 3.125 C13.06988281 3.21136719 14.01476562 3.29773438 14.98828125 3.38671875 C17.32492418 3.59914083 19.6619967 3.80321542 22 4 C22.08126109 6.72977064 22.14061663 9.4571017 22.1875 12.1875 C22.21263672 12.95642578 22.23777344 13.72535156 22.26367188 14.51757812 C22.32421425 19.2197028 21.96375211 22.11834041 19 26 C18.01 25.67 17.02 25.34 16 25 C15.15625 22.78515625 15.15625 22.78515625 14.5 20.0625 C13.53383675 15.7309215 13.53383675 15.7309215 10 13 C5.34582831 12.65777555 5.34582831 12.65777555 1 14 C0.04738513 9.23692563 -0.08333357 4.8333472 0 0 Z " fill="#201D17" transform="translate(63,70)"/>
<path d="M0 0 C4.43820802 1.52119371 8.0059803 3.95551875 11.8125 6.625 C21.8796358 13.49180411 32.75942514 20.25134645 45 22 C44 25 44 25 41.9375 26.75 C37.97461174 28.43633543 35.01840472 28.23316124 31 27 C19.34720665 21.8525052 8.51334647 11.32414138 0 2 C0 1.34 0 0.68 0 0 Z " fill="#0556A6" transform="translate(66,148)"/>
<path d="M0 0 C0.33 0 0.66 0 1 0 C1 4.95 1 9.9 1 15 C-1.61145749 15.87048583 -3.36950856 16.17741906 -6.0625 16.31640625 C-6.85430664 16.35846191 -7.64611328 16.40051758 -8.46191406 16.44384766 C-9.29948242 16.48300293 -10.13705078 16.5221582 -11 16.5625 C-11.85561523 16.6042334 -12.71123047 16.6459668 -13.59277344 16.68896484 C-29.16638926 17.41133059 -29.16638926 17.41133059 -35.875 16.4375 C-39.03470267 15.99514163 -40.92477012 16.32494954 -44 17 C-46.67329316 17.09011101 -49.32402662 17.04535548 -52 17 C-52 15.35 -52 13.7 -52 12 C-44.41 12 -36.82 12 -29 12 C-29 11.34 -29 10.68 -29 10 C-28.01 10 -27.02 10 -26 10 C-26 10.66 -26 11.32 -26 12 C-24.68 12 -23.36 12 -22 12 C-22 11.34 -22 10.68 -22 10 C-21.34 10 -20.68 10 -20 10 C-20 10.66 -20 11.32 -20 12 C-18.68 12 -17.36 12 -16 12 C-16 11.34 -16 10.68 -16 10 C-15.34 10 -14.68 10 -14 10 C-14 10.66 -14 11.32 -14 12 C-9.38 11.67 -4.76 11.34 0 11 C0 7.37 0 3.74 0 0 Z " fill="#F08034" transform="translate(139,63)"/>
<path d="M0 0 C9 3 9 3 11.85546875 4.08984375 C15.43409032 5.12564353 18.46782785 5.23135466 22.1875 5.1875 C23.39792969 5.18105469 24.60835937 5.17460937 25.85546875 5.16796875 C29.02839312 5.13785492 29.02839312 5.13785492 32 4 C31.67 7.3 31.34 10.6 31 14 C20.57675893 14.57906895 12.10905412 11.60615407 4 5 C1.4375 2.125 1.4375 2.125 0 0 Z " fill="#C1352A" transform="translate(87,134)"/>
<path d="M0 0 C0.33 0 0.66 0 1 0 C1.67696483 18.17775919 0.76269074 41.7447365 -11.57421875 56.28125 C-13.80166653 58.96639254 -15.34192086 61.93893082 -17 65 C-18 62 -18 62 -18 60 C-18.99 59.67 -19.98 59.34 -21 59 C-20.13375 58.505 -19.2675 58.01 -18.375 57.5 C-7.87935617 50.31357093 -4.96300299 37.469901 -2.63867188 25.64013672 C-1.09257727 17.12690472 -0.36475981 8.64103413 0 0 Z " fill="#EEAF76" transform="translate(136,79)"/>
<path d="M0 0 C2.33710782 0.68800253 3.70099723 1.55472051 5.06396484 3.58447266 C6.16754782 5.63487085 7.18909236 7.70891318 8.1875 9.8125 C8.54263672 10.52470703 8.89777344 11.23691406 9.26367188 11.97070312 C11.04309507 15.6207154 12.46429265 18.93022328 13 23 C12.01 23 11.02 23 10 23 C9.69707031 22.2265625 9.39414063 21.453125 9.08203125 20.65625 C6.78499302 14.94545957 4.45076396 9.67570844 0.91796875 4.62109375 C0 3 0 3 0 0 Z " fill="#16232A" transform="translate(118,176)"/>
<path d="M0 0 C3.84162002 1.24593082 6.1145859 2.33391703 8 6 C7.6875 8.75 7.6875 8.75 7 11 C1.125 10.125 1.125 10.125 0 9 C-0.07179964 7.48071962 -0.08392007 5.95832518 -0.0625 4.4375 C-0.05347656 3.61121094 -0.04445313 2.78492187 -0.03515625 1.93359375 C-0.02355469 1.29550781 -0.01195313 0.65742187 0 0 Z " fill="#CC432A" transform="translate(67,84)"/>
<path d="M0 0 C0.99 0.33 1.98 0.66 3 1 C5.68664302 6.67180194 6.66426935 12.80015271 6 19 C3 21 3 21 0 21 C0 20.34 0 19.68 0 19 C0.99 18.34 1.98 17.68 3 17 C2.7834375 16.10796875 2.566875 15.2159375 2.34375 14.296875 C2.0653125 13.12640625 1.786875 11.9559375 1.5 10.75 C1.2215625 9.58984375 0.943125 8.4296875 0.65625 7.234375 C0 4 0 4 0 0 Z " fill="#C9412E" transform="translate(115,89)"/>
<path d="M0 0 C1.175625 0.4640625 1.175625 0.4640625 2.375 0.9375 C6.89851578 2.26335807 11.31431814 2.64811085 16 3 C15.67 3.99 15.34 4.98 15 6 C9.42447662 6.28838914 5.82637422 6.178344 1 3 C0.67 2.01 0.34 1.02 0 0 Z " fill="#C73F2D" transform="translate(104,112)"/>
<path d="M0 0 C0.99 0 1.98 0 3 0 C3 0.66 3 1.32 3 2 C4.32 2 5.64 2 7 2 C7 1.34 7 0.68 7 0 C7.66 0 8.32 0 9 0 C9 0.66 9 1.32 9 2 C10.32 2 11.64 2 13 2 C13.33 1.34 13.66 0.68 14 0 C14 0.99 14 1.98 14 3 C5.42 3 -3.16 3 -12 3 C-12 2.67 -12 2.34 -12 2 C-8.04 2 -4.08 2 0 2 C0 1.34 0 0.68 0 0 Z " fill="#F75D33" transform="translate(110,73)"/>
<path d="M0 0 C1.50433594 0.01353516 1.50433594 0.01353516 3.0390625 0.02734375 C3.80992188 0.03894531 4.58078125 0.05054687 5.375 0.0625 C5.375 0.7225 5.375 1.3825 5.375 2.0625 C-1.06 2.5575 -1.06 2.5575 -7.625 3.0625 C-7.625 2.4025 -7.625 1.7425 -7.625 1.0625 C-4.98041621 -0.25979189 -2.94738699 -0.03427194 0 0 Z " fill="#252119" transform="translate(103.625,85.9375)"/>
<path d="M0 0 C0.4125 0.66 0.825 1.32 1.25 2 C1.8275 2.66 2.405 3.32 3 4 C4.32 4 5.64 4 7 4 C6.67 4.99 6.34 5.98 6 7 C3.03 6.505 3.03 6.505 0 6 C-0.38218767 4.34385343 -0.71395102 2.67542976 -1 1 C-0.67 0.67 -0.34 0.34 0 0 Z " fill="#C23529" transform="translate(68,88)"/>
<path d="M0 0 C0.66 0 1.32 0 2 0 C2.1875 2.375 2.1875 2.375 2 5 C-1 7 -1 7 -4 7 C-4 6.34 -4 5.68 -4 5 C-3.01 4.34 -2.02 3.68 -1 3 C-0.67 2.01 -0.34 1.02 0 0 Z " fill="#C23528" transform="translate(119,103)"/>
<path d="M0 0 C2.64 0.66 5.28 1.32 8 2 C8 2.66 8 3.32 8 4 C6.02 4 4.04 4 2 4 C1.34 2.68 0.68 1.36 0 0 Z " fill="#C3372A" transform="translate(66,98)"/>
</svg>
