<?xml version="1.0" encoding="UTF-8"?>
<svg version="1.1" xmlns="http://www.w3.org/2000/svg" width="200" height="200">
<path d="M0 0 C66 0 132 0 200 0 C200 65.67 200 131.34 200 199 C134 199 68 199 0 199 C0 133.33 0 67.66 0 0 Z " fill="#FE7070" transform="translate(0,0)"/>
<path d="M0 0 C0.66 2.31 1.32 4.62 2 7 C1.39671875 7.29132813 0.7934375 7.58265625 0.171875 7.8828125 C-4.93348955 10.50137045 -8.59008858 12.55150462 -11 18 C-11.96606025 23.4709517 -11.18365911 28.20129637 -8.44921875 33.02734375 C-3.74249763 39.43406657 2.77531504 43.76116373 9.609375 47.62890625 C11.76680678 48.86625683 13.76860631 50.21230877 15.8125 51.625 C28.29721158 59.49138331 46.05791879 60.96781987 60.41015625 58.38671875 C65.02072506 56.97810621 68.23873403 55.54867593 70.75 51.3125 C72.47607112 46.79103566 72.27705074 42.62499456 71 38 C70.401875 36.96875 69.80375 35.9375 69.1875 34.875 C68 32 68 32 68.6953125 30.078125 C69.8125 28.125 69.8125 28.125 72 25 C76.23007829 27.98246358 78.72667021 31.27358783 81.1875 35.75 C81.70957031 36.68489258 81.70957031 36.68489258 82.2421875 37.63867188 C84.67532455 42.11806787 86.28138476 45.96969331 87 51 C87.185625 51.99 87.37125 52.98 87.5625 54 C86.39921079 60.2042091 81.0689183 64.41137591 76.0625 67.875 C74.5465625 68.926875 74.5465625 68.926875 73 70 C73 70.66 73 71.32 73 72 C76.22292394 70.52834523 78.84726712 68.69245806 81.625 66.5 C82.40101563 65.8915625 83.17703125 65.283125 83.9765625 64.65625 C86.05662067 63.0095757 86.05662067 63.0095757 88 61 C91.66597659 60.8731705 95.28598451 61.34520053 98.92675781 61.76269531 C100.3546378 61.92613141 101.78381545 62.07848527 103.21386719 62.22167969 C117.20645386 63.67122884 128.64240731 67.48180548 140 76 C140 85.57 140 95.14 140 105 C74 105 8 105 -60 105 C-60 85.86 -60 66.72 -60 47 C-51.76485909 43.70594364 -42.79442023 42.5117135 -34 44 C-31.5531655 45.93817357 -30.28861244 47.83595023 -28.65625 50.484375 C-21.6857105 61.07170386 -8.8427719 65.54782533 2.7265625 68.88671875 C7.83679051 70.62468412 12.38723656 73.22679553 17 76 C15.10497461 70.85794281 11.11602539 69.68521373 6.421875 67.43359375 C3.12090783 66.05065431 -0.11788093 65.02254335 -3.5625 64.0625 C-14.51011745 60.88035761 -24.82942524 54.00060763 -30.75 44.0625 C-31.77523628 41.89613618 -31.77523628 41.89613618 -33.625 41.375 C-36.85319863 40.86528443 -39.98364811 40.907256 -43.25 40.9375 C-45.14492188 40.95103516 -45.14492188 40.95103516 -47.078125 40.96484375 C-48.04234375 40.97644531 -49.0065625 40.98804688 -50 41 C-48.82932352 34.19400832 -45.25547875 29.49913878 -40.015625 25.125 C-36.47923438 23.15120058 -32.91948895 23.52006258 -29 24 C-28.67 23.34 -28.34 22.68 -28 22 C-29.98 22 -31.96 22 -34 22 C-27.9600686 10.9905048 -17.9607975 3.97076417 -5.99609375 0.40234375 C-4 0 -4 0 0 0 Z " fill="#5FADF0" transform="translate(60,94)"/>
<path d="M0 0 C4.31075222 3.37363218 6.27594403 6.82783208 8 12 C8.1875 15.4375 8.1875 15.4375 8 18 C8.55429688 18.26554687 9.10859375 18.53109375 9.6796875 18.8046875 C10.76636719 19.33449219 10.76636719 19.33449219 11.875 19.875 C12.59429687 20.22304688 13.31359375 20.57109375 14.0546875 20.9296875 C16 22 16 22 18 24 C18.11785419 29.89270933 16.02528481 32.95677556 12.0546875 37.19921875 C8.95177545 39.9186911 5.79294951 41.40296863 2 43 C2.66 43.33 3.32 43.66 4 44 C4.06058594 45.14597656 4.12117188 46.29195312 4.18359375 47.47265625 C4.26806989 49.00261297 4.35271427 50.53256041 4.4375 52.0625 C4.47681641 52.81466797 4.51613281 53.56683594 4.55664062 54.34179688 C4.75006047 57.77871878 5.01790193 61.12167931 5.51953125 64.53125 C6.6893559 72.97681333 8.33813267 85.76715975 3 93 C0.1645411 95.89076041 -2.82138859 98.4944279 -6 101 C-2.44920141 100.33758211 0.67457466 99.42518229 4 98 C8.89758343 106.61449942 8.89758343 106.61449942 8 112 C6.80043494 115.85360274 5.44022585 118.97000242 2.09375 121.36328125 C-10.13599052 127.63786827 -26.75133443 126.09952044 -39.5703125 122.22265625 C-46.30317425 119.76378981 -52.09052072 116.00156168 -58 112 C-59.32257813 111.14535156 -59.32257813 111.14535156 -60.671875 110.2734375 C-67.26095022 105.90068758 -75.20565646 100.17423167 -77 92 C-77.53588341 87.44073797 -77.46852342 84.03889976 -75.5625 79.8125 C-72.16740656 76.08617793 -68.29781387 73.58970836 -64 71 C-64.33 70.34 -64.66 69.68 -65 69 C-65.02043654 66.85416285 -64.99154254 64.70775386 -64.9375 62.5625 C-64.89656645 58.0825509 -65.04743451 54.00147219 -66 49.625 C-68.51292048 37.29712201 -68.11079212 25.7486203 -61.0625 15.0625 C-57.48936819 11.48936819 -54.64350279 10.04742249 -49.6875 9.375 C-43.67523978 8.34587438 -38.93999495 5.40158363 -33.79760742 2.27490234 C-23.51480222 -3.90423212 -10.99764464 -5.6230257 0 0 Z " fill="#F5914E" transform="translate(125,29)"/>
<path d="M0 0 C4.31075222 3.37363218 6.27594403 6.82783208 8 12 C8.1875 15.4375 8.1875 15.4375 8 18 C8.55429688 18.26554687 9.10859375 18.53109375 9.6796875 18.8046875 C10.76636719 19.33449219 10.76636719 19.33449219 11.875 19.875 C12.59429687 20.22304688 13.31359375 20.57109375 14.0546875 20.9296875 C16 22 16 22 18 24 C18.11648752 29.82437618 16.11389804 32.98674841 12.125 37.14453125 C1.3351648 46.56580279 -14.54356114 47.56711286 -28.28515625 47.296875 C-34.99969525 46.76027672 -41.04581384 45.14096976 -47 42 C-46.855625 42.92941406 -46.71125 43.85882813 -46.5625 44.81640625 C-46.376875 46.05261719 -46.19125 47.28882813 -46 48.5625 C-45.814375 49.78066406 -45.62875 50.99882813 -45.4375 52.25390625 C-45.01444923 55.87627848 -44.92498575 59.35712046 -45 63 C-45.99 63 -46.98 63 -48 63 C-48.433125 62.05125 -48.86625 61.1025 -49.3125 60.125 C-50.79302201 56.79958063 -50.79302201 56.79958063 -54 55 C-58.15869464 55.29704962 -60.50407222 55.66938148 -64 58 C-67.45165417 44.85084126 -70.10519088 30.40356346 -63 18 C-60.48566135 14.18793817 -58.16074638 11.89947117 -54 10 C-52.56480025 9.77636927 -51.12683053 9.57028605 -49.6875 9.375 C-43.67523978 8.34587438 -38.93999495 5.40158363 -33.79760742 2.27490234 C-23.51480222 -3.90423212 -10.99764464 -5.6230257 0 0 Z " fill="#1C1C17" transform="translate(125,29)"/>
<path d="M0 0 C0 0.66 0 1.32 0 2 C0.99 2.33 1.98 2.66 3 3 C5.07988203 6.11982305 5.32903648 7.29141493 5.6328125 10.90234375 C5.7167627 11.87034912 5.80071289 12.83835449 5.88720703 13.83569336 C6.00491455 15.37108765 6.00491455 15.37108765 6.125 16.9375 C6.20991699 17.97334229 6.29483398 19.00918457 6.38232422 20.07641602 C6.92761405 27.06698771 7.27144955 33.98755328 7 41 C-1.78060259 37.26011371 -10.64237188 31.1299015 -14.4453125 22.0390625 C-15.86349112 16.82575801 -15.76888044 12.66590762 -13.5 7.75 C-9.84630698 3.73093767 -5.61560477 0 0 0 Z " fill="#1B1D19" transform="translate(63,101)"/>
<path d="M0 0 C2.64 0 5.28 0 8 0 C7.94199219 0.64066406 7.88398437 1.28132813 7.82421875 1.94140625 C7.4343564 8.1182969 7.4343564 8.1182969 10.4375 13.25 C13.41595874 16.70699227 13.29518631 19.57884856 13.375 24.0625 C13.41388854 28.85714239 13.41388854 28.85714239 15.46484375 32.9921875 C17.28731057 34.45468811 17.28731057 34.45468811 19.2109375 35.70703125 C22.27092247 37.91850511 23.42849638 40.60555219 25 44 C25 45.32 25 46.64 25 48 C17.71094904 47.0594773 9.249802 43.249802 4 38 C3.70956717 35.44730833 3.47668303 32.91200303 3.28125 30.3515625 C3.21844849 29.5832309 3.15564697 28.81489929 3.09094238 28.02328491 C2.88966016 25.55751513 2.69425607 23.09133261 2.5 20.625 C2.30547619 18.16583484 2.10959344 15.70682101 1.90905762 13.24813843 C1.78412701 11.71589538 1.66267503 10.18336393 1.54504395 8.65054321 C1.29543843 5.58419527 0.97731688 2.93195063 0 0 Z " fill="#F17A2E" transform="translate(66,104)"/>
<path d="M0 0 C1.53240659 1.89663076 2.93828456 3.86359838 4.35546875 5.84765625 C11.42922303 15.1057052 21.70219318 19.88150753 32.6875 23 C38.39445863 24.64332905 43.67168737 26.80589861 48 31 C48 31.99 48 32.98 48 34 C44.42793431 33.30590193 41.57830048 31.82384801 38.375 30.125 C34.59263783 28.19026444 31.04255703 26.59030315 26.9375 25.5 C16.13154469 22.47916585 7.62038024 16.12239854 0 8 C-0.41894531 7.07960937 -0.83789062 6.15921875 -1.26953125 5.2109375 C-2.73405303 2.85414004 -2.73405303 2.85414004 -4.82177734 2.60668945 C-7.1303795 2.50657282 -9.38016209 2.56446722 -11.6875 2.6875 C-12.88342773 2.72133789 -12.88342773 2.72133789 -14.10351562 2.75585938 C-16.06981334 2.81473056 -18.03514491 2.90441245 -20 3 C-20 1.68 -20 0.36 -20 -1 C-13.98677335 -2.60352711 -5.36627146 -3.57751431 0 0 Z " fill="#20282A" transform="translate(29,136)"/>
<path d="M0 0 C0.99 0.33 1.98 0.66 3 1 C2.31105791 7.20047882 0.72961531 11.04875125 -3.66015625 15.4921875 C-12.80155974 21.38297506 -23.24121893 20.434216 -33.72070312 20.43945312 C-47.21566068 20.63740647 -57.78069126 23.58557481 -67.3125 33.375 C-69 35 -69 35 -72 35 C-68.39979853 26.77353964 -59.97521369 22.28231584 -52 19 C-48.52508232 17.91269018 -45.24682185 17.84546024 -41.6171875 17.7890625 C-40.36679687 17.76070312 -39.11640625 17.73234375 -37.828125 17.703125 C-35.21628069 17.65150752 -32.60428274 17.60710257 -29.9921875 17.5703125 C-21.4598541 17.36050102 -12.76285669 16.98148118 -5.5625 11.875 C-2.30183751 8.21669574 -1.16623169 4.69561705 0 0 Z " fill="#F0F7FD" transform="translate(102,162)"/>
<path d="M0 0 C0.33 0 0.66 0 1 0 C2.92167088 11.08392314 4.33138079 22.05075297 4.5 33.3125 C4.53029297 34.25939697 4.56058594 35.20629395 4.59179688 36.18188477 C4.59740544 44.06122288 2.01951204 48.72886196 -3.25 54.4375 C-7.06129624 56.60300923 -10.67433177 56.81151772 -15 57 C-14.01 56.34 -13.02 55.68 -12 55 C-5.80983558 50.78001111 -0.54122009 46.73817101 1 39 C1.09562452 36.21845152 1.13941966 33.46809068 1.125 30.6875 C1.12886719 29.95337891 1.13273437 29.21925781 1.13671875 28.46289062 C1.12857964 23.87650239 0.65313974 19.54626403 0 15 C-0.06515057 12.35488687 -0.08591426 9.70831175 -0.0625 7.0625 C-0.05798828 6.37865234 -0.05347656 5.69480469 -0.04882812 4.99023438 C-0.0371956 3.32678396 -0.01926694 1.6633795 0 0 Z " fill="#F7A773" transform="translate(129,75)"/>
<path d="M0 0 C2.0625 0.25 2.0625 0.25 5 1 C6.60336086 1.35779697 8.20758495 1.71174026 9.8125 2.0625 C11.20844918 2.37448212 12.60432165 2.68680856 14 3 C14.33 4.65 14.66 6.3 15 8 C12.68515576 10.1367793 11.27316474 10.95843145 8.125 11.4375 C4.12783548 10.87789697 2.04842924 9.62306702 -1 7 C-2 4.375 -2 4.375 -2 2 C-1.34 1.34 -0.68 0.68 0 0 Z " fill="#312A21" transform="translate(103,104)"/>
<path d="M0 0 C0.66 0 1.32 0 2 0 C6.89758343 8.61449942 6.89758343 8.61449942 6 14 C3.04147465 21.47926267 3.04147465 21.47926267 0 23 C-1.76792949 19.46414103 -1.47331352 15.40104968 -1.6875 11.5 C-1.74744141 10.61957031 -1.80738281 9.73914063 -1.86914062 8.83203125 C-1.91619141 7.99027344 -1.96324219 7.14851562 -2.01171875 6.28125 C-2.05772217 5.50845703 -2.10372559 4.73566406 -2.15112305 3.93945312 C-2 2 -2 2 0 0 Z " fill="#242421" transform="translate(127,127)"/>
<path d="M0 0 C0.99 0 1.98 0 3 0 C3.75224277 8.65079181 0.47896565 15.41454842 -4.75 22.1875 C-12.59334471 31.43562287 -12.59334471 31.43562287 -17 34 C-19.234375 33.67578125 -19.234375 33.67578125 -21 33 C-20.20335938 32.31035156 -19.40671875 31.62070313 -18.5859375 30.91015625 C-7.99263253 21.59071916 -2.51444625 14.2705853 0 0 Z " fill="#ECF5FD" transform="translate(111,165)"/>
<path d="M0 0 C0.73605469 0.27714844 1.47210938 0.55429688 2.23046875 0.83984375 C3.20628906 1.20207031 4.18210937 1.56429687 5.1875 1.9375 C6.15042969 2.29714844 7.11335938 2.65679687 8.10546875 3.02734375 C13.33196602 4.78361611 18.13485446 5.16156615 23.625 5.125 C24.6759082 5.12209961 24.6759082 5.12209961 25.74804688 5.11914062 C31.53391606 5.07149852 37.2527727 4.68187443 43 4 C36.79316632 8.13788912 30.56264466 8.35662412 23.3125 8.3125 C22.43561523 8.31121094 21.55873047 8.30992188 20.65527344 8.30859375 C13.7308678 8.20657672 7.58242407 7.247657 1 5 C0.67 3.35 0.34 1.7 0 0 Z " fill="#ED792E" transform="translate(77,70)"/>
<path d="M0 0 C0.99 0.33 1.98 0.66 3 1 C1.62595695 8.23346802 -4.61312098 12.73637756 -10.16796875 17.03125 C-10.77253906 17.3509375 -11.37710938 17.670625 -12 18 C-12.99 17.67 -13.98 17.34 -15 17 C-13.54762977 13.42373352 -11.74871986 11.83547286 -8.625 9.625 C-4.75079192 6.73650026 -2.35426207 4.19672803 0 0 Z " fill="#26292B" transform="translate(147,149)"/>
<path d="M0 0 C2.32590854 3.63423209 2.16265833 6.77088331 2 11 C1.67 10.34 1.34 9.68 1 9 C-0.90113853 8.49970039 -2.80516655 8.00764771 -4.72265625 7.57421875 C-8.2710858 6.67950324 -11.59624432 5.33718973 -15 4 C-15 3.67 -15 3.34 -15 3 C-14.00097656 2.86722656 -13.00195312 2.73445312 -11.97265625 2.59765625 C-10.68230469 2.42105469 -9.39195313 2.24445313 -8.0625 2.0625 C-6.77472656 1.88847656 -5.48695312 1.71445313 -4.16015625 1.53515625 C-1.14533687 1.33837577 -1.14533687 1.33837577 0 0 Z " fill="#C0372B" transform="translate(124,129)"/>
<path d="M0 0 C4.87664905 0.3324988 7.41420857 1.73060194 11 5 C10.34 6.32 9.68 7.64 9 9 C4.51658163 9.36352041 4.51658163 9.36352041 2.3125 7.8125 C0.75175081 5.65717969 -0.12052567 3.50311926 -1 1 C-0.67 0.67 -0.34 0.34 0 0 Z " fill="#C83D2B" transform="translate(64,90)"/>
<path d="M0 0 C0.66 0 1.32 0 2 0 C2.70304222 1.72290605 3.38683491 3.45367466 4.0625 5.1875 C4.44535156 6.15042969 4.82820313 7.11335938 5.22265625 8.10546875 C6.06802097 11.2532841 6.01333724 12.92815571 5 16 C4.34 16.66 3.68 17.32 3 18 C2.01 18 1.02 18 0 18 C0 17.01 0 16.02 0 15 C0.66 14.67 1.32 14.34 2 14 C1.855625 12.989375 1.71125 11.97875 1.5625 10.9375 C1.04166667 7.29166667 0.52083333 3.64583333 0 0 Z " fill="#C53A2B" transform="translate(115,85)"/>
<path d="M0 0 C0.66 0 1.32 0 2 0 C2.86659748 5.63288364 0.61014196 8.7463061 -2.39453125 13.2421875 C-3.18923828 14.11230469 -3.18923828 14.11230469 -4 15 C-4.99 15 -5.98 15 -7 15 C-6.06254786 12.4039787 -5.19723851 10.25476641 -3.5 8.0625 C-1.65299252 5.52286471 -0.88476994 2.99460595 0 0 Z " fill="#035BB2" transform="translate(131,41)"/>
<path d="M0 0 C1.32 0 2.64 0 4 0 C4.98248524 4.0527516 5.08159574 7.83861737 5 12 C3.68 11.67 2.36 11.34 1 11 C0.67 7.37 0.34 3.74 0 0 Z " fill="#222E32" transform="translate(170,187)"/>
<path d="M0 0 C2.64 0.33 5.28 0.66 8 1 C8.33 2.32 8.66 3.64 9 5 C6.26752652 6.36623674 4.01801098 6.128426 1 6 C0 5 0 5 -0.0625 2.4375 C-0.041875 1.633125 -0.02125 0.82875 0 0 Z " fill="#EBEBEA" transform="translate(107,107)"/>
<path d="M0 0 C-7.15533979 2.60758587 -13.40237976 3.38999191 -21 3 C-21 2.67 -21 2.34 -21 2 C-18.25162151 1.46892686 -15.50187625 0.94984119 -12.75 0.4375 C-11.97269531 0.28603516 -11.19539063 0.13457031 -10.39453125 -0.02148438 C-9.64042969 -0.16005859 -8.88632813 -0.29863281 -8.109375 -0.44140625 C-7.07248535 -0.63778687 -7.07248535 -0.63778687 -6.01464844 -0.83813477 C-3.78712058 -1.01710362 -2.12493038 -0.65206197 0 0 Z " fill="#E07130" transform="translate(120,75)"/>
<path d="M0 0 C0 0.99 0 1.98 0 3 C-3.3 3.33 -6.6 3.66 -10 4 C-10 3.01 -10 2.02 -10 1 C-6.52674819 -0.1577506 -3.63932552 -0.06866652 0 0 Z " fill="#3D2D1E" transform="translate(106,81)"/>
<path d="M0 0 C-1.12451727 2.9719385 -2.22293791 5.33440687 -4 8 C-4.99 8 -5.98 8 -7 8 C-4.18918919 0 -4.18918919 0 0 0 Z " fill="#035BB3" transform="translate(84,36)"/>
<path d="M0 0 C2.64 0 5.28 0 8 0 C7.67 0.99 7.34 1.98 7 3 C4.69 3 2.38 3 0 3 C0 2.01 0 1.02 0 0 Z " fill="#1F1E1A" transform="translate(24,116)"/>
<path d="M0 0 C2.64 0 5.28 0 8 0 C7.67 0.99 7.34 1.98 7 3 C5.02 3 3.04 3 1 3 C0.67 2.01 0.34 1.02 0 0 Z " fill="#BE3829" transform="translate(66,104)"/>
<path d="M0 0 C2.97 0 5.94 0 9 0 C9 0.66 9 1.32 9 2 C5.7 2.33 2.4 2.66 -1 3 C-0.67 2.01 -0.34 1.02 0 0 Z " fill="#30271B" transform="translate(120,77)"/>
<path d="M0 0 C2.88575819 0.39803561 3.82189513 0.79009069 5.75 3.0625 C6.1625 3.701875 6.575 4.34125 7 5 C3 5 3 5 1.25 3.625 C0 2 0 2 0 0 Z " fill="#065BB0" transform="translate(71,65)"/>
<path d="M0 0 C0.66 0 1.32 0 2 0 C2.125 2.875 2.125 2.875 2 6 C1.34 6.66 0.68 7.32 0 8 C-0.66 8 -1.32 8 -2 8 C-1.34 5.36 -0.68 2.72 0 0 Z " fill="#075FBB" transform="translate(131,41)"/>
<path d="M0 0 C0.33 1.32 0.66 2.64 1 4 C0.01 4.33 -0.98 4.66 -2 5 C-2.33 5.66 -2.66 6.32 -3 7 C-3.33 5.68 -3.66 4.36 -4 3 C-2.68 2.67 -1.36 2.34 0 2 C0 1.34 0 0.68 0 0 Z " fill="#F3782F" transform="translate(117,95)"/>
</svg>
