<?xml version="1.0" encoding="UTF-8"?>
<svg version="1.1" xmlns="http://www.w3.org/2000/svg" width="199" height="200">
<path d="M0 0 C65.67 0 131.34 0 199 0 C199 65.67 199 131.34 199 199 C133.33 199 67.66 199 0 199 C0 133.33 0 67.66 0 0 Z " fill="#2C3544" transform="translate(0,1)"/>
<path d="M0 0 C65.67 0 131.34 0 199 0 C199 48.84 199 97.68 199 148 C196.69 146.02 194.38 144.04 192 142 C189.5717831 140.52655489 187.1894844 139.13739614 184.6875 137.8125 C178.26491134 134.39736701 178.26491134 134.39736701 176 131 C175.38780733 128.06147517 175.21713764 126.82444459 176 124 C177.91273464 121.10320812 180.01383635 118.40098007 182.1328125 115.65234375 C184.61815738 112.12190615 185.43787356 110.29116085 185 106 C181.82980284 103.10153402 178.41014094 101.04394371 174.6875 98.9375 C168.03212654 94.79477768 163.49645199 88.99290397 160 82 C159.51711034 77.44040724 159.62347225 73.84718743 161.5 69.625 C163.90884458 63.80362559 164.28959397 58.24524197 161.93359375 52.31640625 C156.44451199 42.48990293 148.73906964 36.86926535 138.1796875 33.40234375 C135.0803251 32.83023922 132.02445376 32.96013468 128.875 32.9375 C122.00572412 32.67681894 118.5720571 30.67518833 113.578125 26.078125 C106.20345384 20.1336931 96.47115305 18.17666216 87.1796875 18.57421875 C79.85458352 19.55509877 72.27095215 21.55334945 67 27 C64.02731315 31.45903027 64.49102918 35.76807937 65 41 C66.28994793 44.41974919 66.28994793 44.41974919 68 47 C68.33 47.99 68.66 48.98 69 50 C68.07058594 50.50789063 67.14117187 51.01578125 66.18359375 51.5390625 C53.50451417 58.07070603 53.50451417 58.07070603 45 69 C44.40667683 72.98374131 44.77516705 74.61235698 46.8125 78.125 C48.83605043 80.90102583 48.83605043 80.90102583 50.75 82.8125 C52.82876677 86.45034184 52.70457791 89.92910539 52 94 C50.16578356 98.42541109 47.64201836 102.18446316 44.6875 105.9375 C42.26457959 110.33465186 42.23933107 114.08607873 43 119 C44.45003548 123.18734737 46.7043838 126.58121038 49.25 130.1875 C51.10266181 133.16499219 51.40314179 134.57329482 51 138 C48.44462083 139.27768958 46.58176072 139.14266605 43.72265625 139.17578125 C42.65080078 139.19962891 41.57894531 139.22347656 40.47460938 139.24804688 C38.23520752 139.29034811 35.99557281 139.32195299 33.75585938 139.34179688 C23.96754362 139.59218211 15.42809344 141.62607597 7.5 147.625 C6.30890625 148.51058594 6.30890625 148.51058594 5.09375 149.4140625 C4.4028125 149.93742188 3.711875 150.46078125 3 151 C1.515 151.99 1.515 151.99 0 153 C0 102.51 0 52.02 0 0 Z " fill="#A18575" transform="translate(0,1)"/>
<path d="M0 0 C1.71216126 1.71216126 1.17191224 3.91807056 1.1875 6.25 C1.20167969 7.20390625 1.21585937 8.1578125 1.23046875 9.140625 C1 12 1 12 0 14.44140625 C-1.25210148 17.64502528 -1.23050897 20.258512 -1.1875 23.6875 C-1.18105469 24.82574219 -1.17460938 25.96398437 -1.16796875 27.13671875 C-1.19195839 29.94447181 -1.19195839 29.94447181 0 32 C0.73605469 31.89300781 1.47210938 31.78601563 2.23046875 31.67578125 C10.2437427 30.69132355 10.2437427 30.69132355 14.0625 32.25 C17.1631828 35.05061672 17.96444675 36.68509974 18.4375 40.875 C18.36531284 44.43842075 18.02871942 44.96447861 15.625 47.9375 C11.79278524 50.94852588 9.84763899 51.20198496 5 51 C4.34 50.67 3.68 50.34 3 50 C3.26639556 61.62816603 4.54440853 71.87690747 8 83 C10 89.7646559 10 89.7646559 10 91 C10.804375 91.309375 11.60875 91.61875 12.4375 91.9375 C15 93 15 93 16 94 C17.84150931 93.95761774 19.68307864 93.90969777 21.5234375 93.83203125 C32.62638344 93.43414411 41.0125716 95.43715933 49.8125 102.625 C60.71444761 113.3112616 64.43112001 126.80300629 69 141 C73.07634625 141 74.02280432 139.76948435 77 137 C78.65449338 134.91095293 80.22579941 132.78418021 81.765625 130.609375 C82.17296875 130.07828125 82.5803125 129.5471875 83 129 C83.33 129 83.66 129 84 129 C84 134.61 84 140.22 84 146 C28.23 146 -27.54 146 -85 146 C-81.48822378 133.12348719 -81.48822378 133.12348719 -78.3125 127 C-77.79139648 125.98317139 -77.79139648 125.98317139 -77.25976562 124.94580078 C-72.69726351 116.26266049 -67.23906364 106.32980508 -58 102 C-55.11165584 101.44001491 -52.23408493 101.10846405 -49.3125 100.765625 C-43.89155439 99.51267059 -39.5187679 96.59324045 -34.8359375 93.6796875 C-32 92 -32 92 -30 92 C-29.67 92.33 -29.34 92.66 -29 93 C-28.9175 92.319375 -28.835 91.63875 -28.75 90.9375 C-27.96781797 87.87395371 -26.61684155 85.66315172 -24.98828125 82.98046875 C-23.26020904 79.51749401 -22.65322294 75.79041207 -22 72 C-22.99 72.495 -22.99 72.495 -24 73 C-29.54159883 73.73701399 -34.55204857 73.89182707 -39.3125 70.6875 C-44.72355392 66.02241442 -48.600118 59.00097151 -50 52 C-50.09169514 50.13063013 -50.13066245 48.25833492 -50.1328125 46.38671875 C-50.13410156 45.30326172 -50.13539062 44.21980469 -50.13671875 43.10351562 C-50.13285156 41.97623047 -50.12898438 40.84894531 -50.125 39.6875 C-50.13080078 38.01397461 -50.13080078 38.01397461 -50.13671875 36.30664062 C-50.13015026 30.76611536 -49.99190164 25.45545904 -49 20 C-46.03 19.01 -43.06 18.02 -40 17 C-42.31 16.67 -44.62 16.34 -47 16 C-46.49487476 9.77012202 -43.67395877 4.54525767 -41 -1 C-39.85724609 -1.07347656 -39.85724609 -1.07347656 -38.69140625 -1.1484375 C-33.84420068 -1.49942117 -29.1541394 -1.85332517 -24.4375 -3.0625 C-15.53420826 -5.17159804 -7.97520408 -4.61819957 0 0 Z " fill="#DDC4BC" transform="translate(115,54)"/>
<path d="M0 0 C12.70317824 10.4817396 16.62191095 25.15204479 21.48828125 40.2734375 C25.5646275 40.2734375 26.51108557 39.04292185 29.48828125 36.2734375 C31.14277463 34.18439043 32.71408066 32.05761771 34.25390625 29.8828125 C34.86492187 29.08617187 34.86492187 29.08617187 35.48828125 28.2734375 C35.81828125 28.2734375 36.14828125 28.2734375 36.48828125 28.2734375 C36.48828125 33.8834375 36.48828125 39.4934375 36.48828125 45.2734375 C-19.28171875 45.2734375 -75.05171875 45.2734375 -132.51171875 45.2734375 C-128.99994253 32.39692469 -128.99994253 32.39692469 -125.82421875 26.2734375 C-125.47681641 25.59555176 -125.12941406 24.91766602 -124.77148438 24.21923828 C-119.65550687 14.48274957 -113.50008654 3.93622676 -102.51171875 0.2734375 C-98.08978697 -0.23758764 -96.15100063 -0.17177666 -92.44921875 2.40625 C-91.44638137 3.37984283 -90.46790596 4.37899068 -89.51171875 5.3984375 C-88.7374353 6.20063721 -88.7374353 6.20063721 -87.94750977 7.01904297 C-80.36897318 15.25477428 -76.1274815 25.46161815 -73.51171875 36.2734375 C-69.18073259 35.78723007 -67.47135492 34.65666483 -64.69921875 31.3359375 C-64.01472656 30.52640625 -63.33023438 29.716875 -62.625 28.8828125 C-60.52992599 26.2959189 -58.4541644 23.69495113 -56.38671875 21.0859375 C-55.09982343 19.47794064 -53.80860586 17.87338665 -52.51171875 16.2734375 C-52.03347656 15.68304688 -51.55523437 15.09265625 -51.0625 14.484375 C-47.32468094 10.30744252 -42.95906535 8.43835515 -37.8046875 6.3515625 C-35.36331774 5.49257715 -35.36331774 5.49257715 -34.51171875 3.2734375 C-35.62546875 3.9540625 -36.73921875 4.6346875 -37.88671875 5.3359375 C-39.78515625 6.49609375 -39.78515625 6.49609375 -41.51171875 7.2734375 C-42.50171875 6.7784375 -42.50171875 6.7784375 -43.51171875 6.2734375 C-41.26894541 4.28552477 -39.01823121 2.3081473 -36.76171875 0.3359375 C-35.81039062 -0.51000977 -35.81039062 -0.51000977 -34.83984375 -1.37304688 C-34.22109375 -1.91123047 -33.60234375 -2.44941406 -32.96484375 -3.00390625 C-32.39926758 -3.50140381 -31.83369141 -3.99890137 -31.25097656 -4.51147461 C-21.95983331 -11.00249369 -8.22991184 -5.65726444 0 0 Z " fill="#8578A3" transform="translate(162.51171875,154.7265625)"/>
<path d="M0 0 C0.33 0 0.66 0 1 0 C1 5.61 1 11.22 1 17 C-3.62 17 -8.24 17 -13 17 C-13 15.68 -13 14.36 -13 13 C-11.33919148 11.80421786 -9.67027818 10.6172637 -7.953125 9.50390625 C-5.07791603 7.28999535 -3.2138105 4.53922856 -1.1640625 1.57421875 C-0.58785156 0.79498047 -0.58785156 0.79498047 0 0 Z " fill="#9E8375" transform="translate(198,183)"/>
<path d="M0 0 C0.33 0 0.66 0 1 0 C2.15316726 6.34241995 2.09507063 12.56688704 2 19 C-1.375 19.125 -1.375 19.125 -5 19 C-5.66 18.34 -6.32 17.68 -7 17 C-7 10.33123469 -3.7860748 5.34567947 0 0 Z " fill="#C18672" transform="translate(83,79)"/>
<path d="M0 0 C0.33 0.99 0.66 1.98 1 3 C-0.86591797 2.67515625 -0.86591797 2.67515625 -2.76953125 2.34375 C-11.55263156 0.85887227 -20.0552107 -0.54271755 -29 0 C-29 -0.66 -29 -1.32 -29 -2 C-19.15195939 -4.58309262 -8.8820423 -6.17611779 0 0 Z " fill="#CAB4AF" transform="translate(115,54)"/>
<path d="M0 0 C1.6045556 0.14148989 3.20863767 0.28835686 4.8125 0.4375 C5.70582031 0.51871094 6.59914063 0.59992188 7.51953125 0.68359375 C10 1 10 1 13 2 C15.3406065 1.72230092 17.67624308 1.39460023 20 1 C17.23776722 3.76223278 14.79293383 3.57856291 11 4 C10.67 4.99 10.34 5.98 10 7 C8.0625 6.6875 8.0625 6.6875 6 6 C5.67 5.01 5.34 4.02 5 3 C2.49552484 1.78130071 2.49552484 1.78130071 0 1 C0 0.67 0 0.34 0 0 Z " fill="#B98663" transform="translate(91,153)"/>
<path d="M0 0 C5.13503344 0.64187918 9.9943454 1.68272247 15 3 C15 3.99 15 4.98 15 6 C12.87429688 5.52396226 10.74945573 5.04407402 8.625 4.5625 C7.44164063 4.29566406 6.25828125 4.02882813 5.0390625 3.75390625 C2 3 2 3 0 2 C0 1.34 0 0.68 0 0 Z " fill="#42444E" transform="translate(89,69)"/>
<path d="M0 0 C2.97 0.33 5.94 0.66 9 1 C8.67 1.66 8.34 2.32 8 3 C5.05859375 3.6328125 5.05859375 3.6328125 1.4375 4.125 C0.23996094 4.29257813 -0.95757812 4.46015625 -2.19140625 4.6328125 C-3.11824219 4.75398438 -4.04507813 4.87515625 -5 5 C-5 4.34 -5 3.68 -5 3 C-3.35 2.67 -1.7 2.34 0 2 C0 1.34 0 0.68 0 0 Z " fill="#3C3F4A" transform="translate(67,69)"/>
<path d="M0 0 C3.96 0 7.92 0 12 0 C12 0.99 12 1.98 12 3 C8.04 2.67 4.08 2.34 0 2 C0 1.34 0 0.68 0 0 Z " fill="#B2C2D2" transform="translate(141,175)"/>
<path d="M0 0 C3.33333333 1.66666667 6.66666667 3.33333333 10 5 C10 5.99 10 6.98 10 8 C5.99541169 7.38390949 3.16980331 5.44939347 0 3 C0 2.01 0 1.02 0 0 Z " fill="#B0C0D0" transform="translate(163,162)"/>
<path d="M0 0 C3.96 0.33 7.92 0.66 12 1 C12 1.66 12 2.32 12 3 C8.04 3 4.08 3 0 3 C0 2.01 0 1.02 0 0 Z " fill="#B1C1D1" transform="translate(52,174)"/>
<path d="M0 0 C4.10958767 1.45044271 7.43258745 3.51110752 11 6 C8 7 8 7 5.95703125 6.07421875 C4.89548828 5.38779297 4.89548828 5.38779297 3.8125 4.6875 C3.09707031 4.23761719 2.38164063 3.78773438 1.64453125 3.32421875 C1.10183594 2.88722656 0.55914062 2.45023438 0 2 C0 1.34 0 0.68 0 0 Z " fill="#B3C5D3" transform="translate(110,179)"/>
<path d="M0 0 C0.66 0.66 1.32 1.32 2 2 C0.54462432 2.83848804 -0.91440373 3.67063934 -2.375 4.5 C-3.59316406 5.19609375 -3.59316406 5.19609375 -4.8359375 5.90625 C-7 7 -7 7 -9 7 C-8 4 -8 4 -6.15234375 2.83203125 C-5.42144531 2.49558594 -4.69054687 2.15914062 -3.9375 1.8125 C-3.20402344 1.46832031 -2.47054687 1.12414062 -1.71484375 0.76953125 C-1.14894531 0.51558594 -0.58304688 0.26164063 0 0 Z " fill="#B3C3D3" transform="translate(94,192)"/>
<path d="M0 0 C-1 3 -1 3 -2.7421875 4.203125 C-3.44601563 4.54859375 -4.14984375 4.8940625 -4.875 5.25 C-5.57367188 5.60578125 -6.27234375 5.9615625 -6.9921875 6.328125 C-9 7 -9 7 -12 6 C-10.33333333 5 -8.66666667 4 -7 3 C-6.113125 2.443125 -5.22625 1.88625 -4.3125 1.3125 C-2 0 -2 0 0 0 Z " fill="#B6C7D4" transform="translate(128,158)"/>
<path d="M0 0 C0.66 0.33 1.32 0.66 2 1 C-1.33562767 5.51290803 -3.33289301 7.68206814 -9 9 C-6 6 -3 3 0 0 Z " fill="#9185A9" transform="translate(128,153)"/>
<path d="M0 0 C1.98 0.495 1.98 0.495 4 1 C3.67 1.99 3.34 2.98 3 4 C1.68 4 0.36 4 -1 4 C-0.67 2.68 -0.34 1.36 0 0 Z " fill="#1A181A" transform="translate(73,81)"/>
</svg>
