<?xml version="1.0" encoding="UTF-8"?>
<svg version="1.1" xmlns="http://www.w3.org/2000/svg" width="200" height="200">
<path d="M0 0 C66 0 132 0 200 0 C200 65.67 200 131.34 200 199 C134 199 68 199 0 199 C0 133.33 0 67.66 0 0 Z " fill="#E672F9" transform="translate(0,1)"/>
<path d="M0 0 C-0.28875 0.53625 -0.5775 1.0725 -0.875 1.625 C-2.1669 4.35234445 -3.06528708 7.13302341 -4 10 C-2.66195312 9.11634766 -2.66195312 9.11634766 -1.296875 8.21484375 C-0.11500621 7.45507096 1.06730906 6.69599237 2.25 5.9375 C2.83652344 5.54755859 3.42304687 5.15761719 4.02734375 4.75585938 C8.33916045 2.01858248 8.33916045 2.01858248 11.22265625 1.9375 C13.81285917 3.485929 14.75029779 5.43563426 16.1875 8.0625 C17.10539015 9.71934981 18.03770503 11.36853992 19 13 C19.33 13 19.66 13 20 13 C20.02708567 11.39592672 20.04643483 9.7917215 20.0625 8.1875 C20.07410156 7.29417969 20.08570312 6.40085937 20.09765625 5.48046875 C20.11009967 2.86586209 20.11009967 2.86586209 19 0 C24.41814712 1.55815996 28.85502827 2.98455864 33 7 C36.07169341 13.14338683 33.70569011 21.69503834 32 28 C32.680625 27.319375 33.36125 26.63875 34.0625 25.9375 C37 24 37 24 40.625 24 C44 25 44 25 46 26.5625 C47.54077533 30.31813987 46.76808477 33.031562 46 37 C45.67 37.66 45.34 38.32 45 39 C46.2065625 40.175625 46.2065625 40.175625 47.4375 41.375 C50.56680259 44.58062704 51.16254396 45.97613809 51.25 50.3125 C51.18469106 54.38777802 50.72760042 56.81779951 48 60 C42.97864956 64.42357063 39.39287942 64.38744724 33 64 C32.34 68.62 31.68 73.24 31 78 C34.03497619 79.01165873 36.20278203 79.16398233 39.38256836 79.23364258 C41.03590431 79.27422539 41.03590431 79.27422539 42.72264099 79.31562805 C43.9163179 79.34166611 45.10999481 79.36770416 46.33984375 79.39453125 C48.87306943 79.46336772 51.40627205 79.53305697 53.93945312 79.60351562 C57.92843014 79.71042657 61.91702175 79.81205534 65.90649414 79.89868164 C69.75991344 79.98476076 73.61212786 80.09415606 77.46484375 80.20703125 C79.228032 80.23697929 79.228032 80.23697929 81.02684021 80.26753235 C91.11180717 80.59321899 99.32688159 82.79612895 108 88 C108 105.82 108 123.64 108 142 C42 142 -24 142 -92 142 C-92 111.8019802 -92 111.8019802 -86 102 C-85.29901882 100.24246749 -84.63030996 98.47159767 -84 96.6875 C-80.33910528 87.50549982 -74.92471486 82.2561759 -66 78 C-62.1217277 76.68284013 -58.16747813 76.85600249 -54.12109375 76.8671875 C-52.97012962 76.86575241 -52.97012962 76.86575241 -51.7959137 76.86428833 C-50.17115192 76.8636086 -48.5463874 76.86544843 -46.92163086 76.86962891 C-44.47047581 76.8749287 -42.01950835 76.86970369 -39.56835938 76.86328125 C-31.32729514 76.860134 -23.19430358 77.00088897 -15 78 C-14.72285156 76.81921875 -14.44570312 75.6384375 -14.16015625 74.421875 C-13.7942857 72.86457984 -13.42839946 71.30728837 -13.0625 69.75 C-12.88009766 68.97269531 -12.69769531 68.19539063 -12.50976562 67.39453125 C-12.24389648 66.26337891 -12.24389648 66.26337891 -11.97265625 65.109375 C-11.72914429 64.07248535 -11.72914429 64.07248535 -11.48071289 63.01464844 C-11.0014338 61.00600899 -10.50453398 59.00243058 -10 57 C-10.78503906 57.06960937 -11.57007812 57.13921875 -12.37890625 57.2109375 C-22.03225755 57.70841082 -22.03225755 57.70841082 -26.125 54.25 C-29.37806166 51.04549149 -30.86945752 48.17488235 -31.375 43.625 C-30.92177291 39.24380478 -29.82916989 37.35033277 -27 34 C-21.84210526 30 -21.84210526 30 -18 30 C-17.84144531 29.10539062 -17.68289062 28.21078125 -17.51953125 27.2890625 C-15.48804625 16.76125624 -13.1726567 7.9423116 -4.6484375 0.9609375 C-3 0 -3 0 0 0 Z " fill="#F9CB73" transform="translate(92,58)"/>
<path d="M0 0 C-0.433125 0.804375 -0.433125 0.804375 -0.875 1.625 C-2.1669 4.35234445 -3.06528708 7.13302341 -4 10 C-3.10796875 9.41089844 -2.2159375 8.82179688 -1.296875 8.21484375 C-0.11500621 7.45507096 1.06730906 6.69599237 2.25 5.9375 C2.83652344 5.54755859 3.42304687 5.15761719 4.02734375 4.75585938 C8.33916045 2.01858248 8.33916045 2.01858248 11.22265625 1.9375 C13.81285917 3.485929 14.75029779 5.43563426 16.1875 8.0625 C17.10539015 9.71934981 18.03770503 11.36853992 19 13 C19.33 13 19.66 13 20 13 C20.02708567 11.39592672 20.04643483 9.7917215 20.0625 8.1875 C20.07410156 7.29417969 20.08570313 6.40085937 20.09765625 5.48046875 C20.11009967 2.86586209 20.11009967 2.86586209 19 0 C24.41814712 1.55815996 28.85502827 2.98455864 33 7 C36.07169341 13.14338683 33.70569011 21.69503834 32 28 C32.680625 27.319375 33.36125 26.63875 34.0625 25.9375 C37 24 37 24 40.625 24 C44 25 44 25 46 26.5625 C47.54077533 30.31813987 46.76808477 33.031562 46 37 C45.505 37.99 45.505 37.99 45 39 C45.804375 39.78375 46.60875 40.5675 47.4375 41.375 C50.56680259 44.58062704 51.16254396 45.97613809 51.25 50.3125 C51.18469106 54.38777802 50.72760042 56.81779951 48 60 C42.97864956 64.42357063 39.39287942 64.38744724 33 64 C32.34 68.62 31.68 73.24 31 78 C34.47517129 79.15839043 37.6727002 79.22801218 41.29296875 79.31640625 C41.99899734 79.33718735 42.70502594 79.35796844 43.43244934 79.37937927 C45.68403551 79.44467491 47.93573662 79.50366647 50.1875 79.5625 C51.7155066 79.60570425 53.24350164 79.64931916 54.77148438 79.69335938 C58.51420562 79.80033574 62.2570423 79.90165922 66 80 C66 80.33 66 80.66 66 81 C64.824375 81 63.64875 81 62.4375 81 C57.50453602 81.60686727 55.73890893 84.07012772 52.75390625 87.81640625 C44.75237721 97.7782208 32.57416198 104.13907962 20 106 C2.93194924 107.43349052 -11.08032299 105.60149313 -25 95 C-30.70520629 90.06672675 -35.56658453 84.76331088 -39 78 C-39 77.67 -39 77.34 -39 77 C-30.92970447 76.88452677 -23.02332397 77.09958689 -15 78 C-14.72285156 76.81921875 -14.44570312 75.6384375 -14.16015625 74.421875 C-13.7942857 72.86457984 -13.42839946 71.30728837 -13.0625 69.75 C-12.88009766 68.97269531 -12.69769531 68.19539063 -12.50976562 67.39453125 C-12.24389648 66.26337891 -12.24389648 66.26337891 -11.97265625 65.109375 C-11.81031494 64.41811523 -11.64797363 63.72685547 -11.48071289 63.01464844 C-11.0014338 61.00600899 -10.50453398 59.00243058 -10 57 C-10.78503906 57.06960937 -11.57007812 57.13921875 -12.37890625 57.2109375 C-22.03225755 57.70841082 -22.03225755 57.70841082 -26.125 54.25 C-29.37806166 51.04549149 -30.86945752 48.17488235 -31.375 43.625 C-30.92177291 39.24380478 -29.82916989 37.35033277 -27 34 C-21.84210526 30 -21.84210526 30 -18 30 C-17.84144531 29.10539062 -17.68289062 28.21078125 -17.51953125 27.2890625 C-15.48804625 16.76125624 -13.1726567 7.9423116 -4.6484375 0.9609375 C-3 0 -3 0 0 0 Z " fill="#F3904E" transform="translate(92,58)"/>
<path d="M0 0 C8.95713048 7.16935291 12.66028044 16.76963367 14 28 C14.31667009 33.00906445 14.47793673 38.02271831 14.53393555 43.04125977 C14.48989414 50.12884849 14.48989414 50.12884849 18 56 C21.03031695 56.59469423 23.81216352 56.50000341 26.89453125 56.46875 C31.23608891 57.21145672 33.0806419 58.73238269 36 62 C36.50761477 64.91430595 36.7103068 67.11023218 36.625 70 C36.54889368 74.12496276 36.58837517 77.26488648 38.66015625 80.96484375 C41.56510495 83.49151866 43.00885983 83.56738272 46.8125 83.5625 C52.49151498 83.82535331 55.48575091 84.52026633 60 88 C63.02379152 91.48899021 63.95104261 93.24116051 64.25 97.875 C64.1675 98.90625 64.085 99.9375 64 101 C63.21972443 100.72004181 62.43944885 100.44008362 61.63552856 100.15164185 C53.40063327 97.38213373 46.02238848 96.36664507 37.3671875 96.2421875 C36.12752228 96.20819855 34.88785706 96.17420959 33.61062622 96.13919067 C29.69895099 96.03399348 25.78730921 95.95274399 21.875 95.875 C17.92717116 95.78889791 13.97965019 95.69376019 10.03225708 95.58938599 C7.58741445 95.52563533 5.1422887 95.4718042 2.69699097 95.42892456 C1.59799469 95.40194489 0.49899841 95.37496521 -0.63330078 95.34716797 C-2.08339035 95.31863235 -2.08339035 95.31863235 -3.56277466 95.28952026 C-6 95 -6 95 -9 93 C-9.5029999 87.86940098 -8.57116277 83.811686 -7 79 C-6.41992188 78.97421875 -5.83984375 78.9484375 -5.2421875 78.921875 C0.20866355 78.52610364 3.71047469 77.66178989 8 74 C10.57804494 69.7974336 10.56690283 65.8014952 10 61 C8.50219509 57.71909401 6.66484004 55.41104575 4 53 C4.350625 52.484375 4.70125 51.96875 5.0625 51.4375 C6.39274773 47.9788559 5.85607025 45.5559841 5 42 C1.76746204 39.84497469 0.74849077 39.53143865 -3 40 C-4.68798827 41.43750191 -4.68798827 41.43750191 -6 43 C-6.66 43 -7.32 43 -8 43 C-7.835 41.72125 -7.67 40.4425 -7.5 39.125 C-7.32227694 37.41778148 -7.15630878 35.70931218 -7 34 C-6.92007813 33.12601563 -6.84015625 32.25203125 -6.7578125 31.3515625 C-6.53881093 27.06170813 -6.4889819 24.75828492 -8.9375 21.125 C-12.75356918 18.47711526 -16.6842044 16.68306626 -21 15 C-20.01 16.485 -20.01 16.485 -19 18 C-18.8046875 20.48046875 -18.8046875 20.48046875 -18.875 23.1875 C-18.89304687 24.08855469 -18.91109375 24.98960938 -18.9296875 25.91796875 C-18.95289062 26.60503906 -18.97609375 27.29210937 -19 28 C-19.99 28 -20.98 28 -22 28 C-23.60546875 25.8125 -23.60546875 25.8125 -25.1875 23 C-25.71730469 22.071875 -26.24710937 21.14375 -26.79296875 20.1875 C-27.19128906 19.465625 -27.58960937 18.74375 -28 18 C-32.42323682 18.58265272 -35.5155864 20.26766211 -39.3125 22.5625 C-40.38113281 23.20316406 -41.44976562 23.84382813 -42.55078125 24.50390625 C-43.35902344 24.99761719 -44.16726562 25.49132812 -45 26 C-43.92289822 21.69159287 -42.96052484 18.36423277 -40 15 C-41.0725 15.556875 -42.145 16.11375 -43.25 16.6875 C-43.85328125 17.00074219 -44.4565625 17.31398438 -45.078125 17.63671875 C-49.87404225 21.0387007 -51.78153383 25.43974814 -53.625 30.875 C-54.02976563 32.04804687 -54.43453125 33.22109375 -54.8515625 34.4296875 C-56.05577095 38.01418387 -56.05577095 38.01418387 -56.90625 41.81640625 C-58 45 -58 45 -59.8046875 46.34765625 C-60.48789063 46.58355469 -61.17109375 46.81945312 -61.875 47.0625 C-66.10863284 48.87911336 -67.98753817 50.72351861 -70 55 C-70.6197472 59.33823043 -70.3342226 61.37930088 -68.25 65.25 C-64.69065322 69.64671774 -64.69065322 69.64671774 -59.4921875 71.2578125 C-58.62851563 71.21398437 -57.76484375 71.17015625 -56.875 71.125 C-52.16893733 70.91553134 -52.16893733 70.91553134 -50 72 C-50.36472681 77.4709022 -51.25774176 82.13248208 -53.046875 87.328125 C-53.41135742 88.39450195 -53.77583984 89.46087891 -54.15136719 90.55957031 C-54.43141602 91.36491211 -54.71146484 92.17025391 -55 93 C-55.56661346 92.99333817 -56.13322693 92.98667633 -56.7170105 92.97981262 C-62.65503216 92.91304861 -68.59294587 92.86803031 -74.53125 92.83520508 C-76.74255714 92.82018963 -78.95383485 92.79977109 -81.16503906 92.77368164 C-84.35749609 92.73697846 -87.54955675 92.7202007 -90.7421875 92.70703125 C-91.71864227 92.69154739 -92.69509705 92.67606354 -93.70114136 92.66011047 C-100.27138624 92.65852704 -105.82143379 93.77250223 -112 96 C-109.56578915 87.48026203 -105.6029715 83.36434978 -98.33984375 78.61328125 C-94.97110487 76.29059485 -93.3075759 74.9227277 -92 71 C-91.89939325 69.06332012 -91.81825976 67.1255896 -91.75 65.1875 C-91.41499349 61.15771153 -91.08076203 59.14328748 -89.0625 55.5625 C-84.78190367 51.98077654 -79.62465846 48.69192652 -74.0534668 47.62841797 C-71.61999602 47.05660486 -70.03484932 46.47282072 -68 45 C-65.82606718 41.03736378 -64.66731799 36.83432929 -63.4375 32.5 C-59.60349571 19.49836695 -54.57902333 7.86802664 -43 0 C-28.92964706 -7.18753061 -13.74728934 -8.84344665 0 0 Z " fill="#0364C7" transform="translate(132,43)"/>
<path d="M0 0 C0.33 0 0.66 0 1 0 C1.1750407 4.28849726 1.2603001 8.09762633 0.0625 12.25 C-0.98296715 15.93988405 -1.03644496 18.69596402 -1.0625 22.5 C-1.39643472 28.31714281 -1.39643472 28.31714281 -3.9921875 31.25390625 C-6.4375 33.0625 -6.4375 33.0625 -8.87109375 34.53515625 C-11.26715799 36.1838243 -12.01468514 37.29429411 -13 40 C-13.47357835 44.26220512 -13.29830613 46.4460029 -11.25 50.25 C-7.69065322 54.64671774 -7.69065322 54.64671774 -2.4921875 56.2578125 C-1.62851563 56.21398437 -0.76484375 56.17015625 0.125 56.125 C4.83106267 55.91553134 4.83106267 55.91553134 7 57 C6.63527319 62.4709022 5.74225824 67.13248208 3.953125 72.328125 C3.58864258 73.39450195 3.22416016 74.46087891 2.84863281 75.55957031 C2.56858398 76.36491211 2.28853516 77.17025391 2 78 C1.43338654 77.99333817 0.86677307 77.98667633 0.2829895 77.97981262 C-5.65503216 77.91304861 -11.59294587 77.86803031 -17.53125 77.83520508 C-19.74255714 77.82018963 -21.95383485 77.79977109 -24.16503906 77.77368164 C-27.35749609 77.73697846 -30.54955675 77.7202007 -33.7421875 77.70703125 C-34.71864227 77.69154739 -35.69509705 77.67606354 -36.70114136 77.66011047 C-43.27138624 77.65852704 -48.82143379 78.77250223 -55 81 C-52.56578915 72.48026203 -48.6029715 68.36434978 -41.33984375 63.61328125 C-37.97110487 61.29059485 -36.3075759 59.9227277 -35 56 C-34.89939325 54.06332012 -34.81825976 52.1255896 -34.75 50.1875 C-34.41499349 46.15771153 -34.08076203 44.14328748 -32.0625 40.5625 C-27.79788061 36.994145 -22.62672418 33.6674307 -17.06445312 32.64379883 C-14.60660954 32.07799955 -13.0467725 31.49740188 -11 30 C-8.71798555 25.8939094 -7.45052003 21.55427135 -6.125 17.0625 C-5.37921236 14.69871075 -4.63188051 12.33540802 -3.8828125 9.97265625 C-3.56715332 8.92343994 -3.25149414 7.87422363 -2.92626953 6.79321289 C-2.1245861 4.37569572 -1.21147696 2.23355588 0 0 Z " fill="#0264C7" transform="translate(75,58)"/>
<path d="M0 0 C4.18604651 -0.95930233 4.18604651 -0.95930233 7 0 C9.30970909 2.54428891 11.13304432 5.26079697 13.046875 8.11328125 C20.26102609 18.77579657 31.50589509 25.30788127 44 28 C47.6587954 28.38573141 51.26105947 28.43088858 54.9375 28.375 C56.390354 28.35977295 56.390354 28.35977295 57.87255859 28.34423828 C64.63513768 28.19720091 70.71527256 27.66319108 77 25 C77.97839844 24.5978125 78.95679687 24.195625 79.96484375 23.78125 C88.64348204 19.84138899 96.08509878 14.31825073 101.5625 6.4375 C104.37475441 3.62524559 105.00693041 3.64272781 108.8125 3.625 C110.20912003 3.74088008 111.60515464 3.86441934 113 4 C108.90906628 10.21133627 104.70844872 16.33044653 100.375 22.375 C99.81554687 23.16777344 99.25609375 23.96054688 98.6796875 24.77734375 C98.133125 25.53917969 97.5865625 26.30101562 97.0234375 27.0859375 C96.53794434 27.7670459 96.05245117 28.4481543 95.55224609 29.14990234 C93.85684698 31.17062183 92.22803884 32.58923423 90 34 C86.890625 34.23046875 86.890625 34.23046875 83.25 34.1875 C74.53853362 34.38778835 68.20898183 37.9730803 60.71972656 42.08886719 C54.6432775 45.3082465 48.8349953 46.78434372 42 46 C36.44574731 43.50625389 33.86590725 39.23385325 30.7109375 34.2421875 C28.82309061 31.76815985 27.94845891 30.92737853 25 30 C21.63219699 29.75210703 18.30630709 29.63412049 14.93164062 29.609375 C10.02158091 29.44371225 7.41202318 28.56093501 4 25 C2.58997017 20.76991052 2.64956225 16.49146433 2.48242188 12.06835938 C2.26691669 7.72166052 1.57322527 4.05726516 0 0 Z " fill="#FAD286" transform="translate(46,135)"/>
<path d="M0 0 C0.33 0 0.66 0 1 0 C1.1750407 4.28849726 1.2603001 8.09762633 0.0625 12.25 C-0.98296715 15.93988405 -1.03644496 18.69596402 -1.0625 22.5 C-1.40358453 28.34525247 -1.40358453 28.34525247 -3.95703125 31.1484375 C-5.56465956 32.29637242 -7.20655727 33.39780434 -8.87890625 34.44921875 C-11.3797686 35.972452 -11.3797686 35.972452 -12.3125 39.6875 C-14 43 -14 43 -16.73046875 44.22265625 C-18.86692673 44.89396861 -21.02001146 45.51500298 -23.1875 46.078125 C-26.03110817 47.01019657 -27.2254136 47.64166807 -29 50 C-29.97790191 52.93370573 -30.16121432 55.12288436 -30.3125 58.1875 C-30.90242091 65.25718714 -32.99535226 69.99535226 -38 75 C-34.37 75.33 -30.74 75.66 -27 76 C-27 76.33 -27 76.66 -27 77 C-28.18335937 77.03738281 -29.36671875 77.07476562 -30.5859375 77.11328125 C-39.08676806 77.44493768 -46.99648955 77.80261769 -55 81 C-52.56578915 72.48026203 -48.6029715 68.36434978 -41.33984375 63.61328125 C-37.97110487 61.29059485 -36.3075759 59.9227277 -35 56 C-34.89939325 54.06332012 -34.81825976 52.1255896 -34.75 50.1875 C-34.41499349 46.15771153 -34.08076203 44.14328748 -32.0625 40.5625 C-27.79788061 36.994145 -22.62672418 33.6674307 -17.06445312 32.64379883 C-14.60660954 32.07799955 -13.0467725 31.49740188 -11 30 C-8.71798555 25.8939094 -7.45052003 21.55427135 -6.125 17.0625 C-5.37921236 14.69871075 -4.63188051 12.33540802 -3.8828125 9.97265625 C-3.56715332 8.92343994 -3.25149414 7.87422363 -2.92626953 6.79321289 C-2.1245861 4.37569572 -1.21147696 2.23355588 0 0 Z " fill="#1671D0" transform="translate(75,58)"/>
<path d="M0 0 C0.495 0.721875 0.99 1.44375 1.5 2.1875 C3.76232523 4.73261588 5.11902346 5.73226287 8 7.3125 C11.2544518 9.1994849 12.5373494 10.57825426 13.9375 14.0625 C15.47672545 17.78053774 17.07408119 18.89357203 20.75 20.5 C22.15703223 21.02650238 23.57115941 21.53593211 25 22 C25 22.33 25 22.66 25 23 C19.2156133 22.90651343 13.43164755 22.80043019 7.64770508 22.68261719 C5.67967069 22.64431153 3.7115659 22.60946145 1.7434082 22.578125 C-1.08407772 22.53250889 -3.91107834 22.47450902 -6.73828125 22.4140625 C-7.61962234 22.40251129 -8.50096344 22.39096008 -9.40901184 22.37905884 C-10.6399482 22.3492543 -10.6399482 22.3492543 -11.89575195 22.31884766 C-12.61745071 22.30552399 -13.33914948 22.29220032 -14.0827179 22.2784729 C-16 22 -16 22 -19 20 C-19.5029999 14.86940098 -18.57116277 10.811686 -17 6 C-16.1646875 5.97873047 -16.1646875 5.97873047 -15.3125 5.95703125 C-9.03184746 5.56449047 -5.03310133 3.71654076 0 0 Z " fill="#0356A7" transform="translate(142,116)"/>
<path d="M0 0 C2.475 0.99 2.475 0.99 5 2 C5 19.82 5 37.64 5 56 C1.37 56 -2.26 56 -6 56 C-6.64312062 48.49692615 -5.53371464 42.9682596 -3 36 C-0.21553996 28.29256985 1.20351096 21.70989032 -0.51953125 13.53515625 C-1.02183983 10.88476381 -1.13306877 8.44496854 -1.125 5.75 C-1.12757813 4.87859375 -1.13015625 4.0071875 -1.1328125 3.109375 C-1 1 -1 1 0 0 Z " fill="#F8BC64" transform="translate(195,144)"/>
<path d="M0 0 C-0.36754508 7.35090153 -0.36754508 7.35090153 -3.375 10.4375 C-6 12 -6 12 -9 13 C-9.79006233 14.91231564 -9.79006233 14.91231564 -10.16796875 17.25390625 C-10.33876953 18.10791016 -10.50957031 18.96191406 -10.68554688 19.84179688 C-10.85119141 20.73962891 -11.01683594 21.63746094 -11.1875 22.5625 C-11.36474609 23.46419922 -11.54199219 24.36589844 -11.72460938 25.29492188 C-12.16175506 27.52790927 -12.58627093 29.76257597 -13 32 C-16.35298369 30.39971233 -18.26034918 29.39231911 -20 26 C-20.71677591 21.38845381 -20.66677261 18.08063147 -18.1875 14.0625 C-13.87878788 10 -13.87878788 10 -10 10 C-10.33 9.01 -10.66 8.02 -11 7 C-11.66 6.67 -12.32 6.34 -13 6 C-12.62118922 3.25362183 -12.22167713 2.19950942 -10.125 0.3125 C-6.00671509 -2.23114656 -4.26663043 -1.96034371 0 0 Z " fill="#E98D54" transform="translate(139,87)"/>
<path d="M0 0 C2.85595975 1.61105422 3.99468575 2.41343391 5.4375 5.375 C6.10553849 9.22906819 6.33684594 12.76950095 4.3828125 16.2578125 C2.6181644 18.41924538 0.94689153 20.12030423 -1.5625 21.375 C-4.2348621 21.50915472 -6.88500488 21.41818541 -9.5625 21.375 C-9.1800725 15.99082331 -8.72776559 10.6253148 -7.75 5.3125 C-7.61980469 4.59964844 -7.48960937 3.88679688 -7.35546875 3.15234375 C-6.5625 1.375 -6.5625 1.375 -4.6484375 0.08984375 C-2.5625 -0.625 -2.5625 -0.625 0 0 Z " fill="#0557A6" transform="translate(135.5625,98.625)"/>
<path d="M0 0 C0.03738281 0.90621094 0.07476562 1.81242187 0.11328125 2.74609375 C0.50720141 10.04520269 1.30300838 16.1988907 4 23 C-0.99754367 23.29397316 -3.98418348 23.0979156 -8 20 C-10.8288298 15.7567553 -10.65268001 11.98265471 -10 7 C-7.68535949 3.03204484 -4.82391827 0 0 0 Z " fill="#0A68C5" transform="translate(74,90)"/>
<path d="M0 0 C0.33 0 0.66 0 1 0 C1.03867188 1.23363281 1.03867188 1.23363281 1.078125 2.4921875 C1.53026189 11.39106348 2.4463549 19.10791251 8.625 25.875 C12.88337898 28.55620158 17.26810293 30.32606803 22 32 C22 32.33 22 32.66 22 33 C17.11956128 33.354941 13.96539693 33.20144847 9.5625 31 C6.22456052 29.33390284 4.09060182 28.83481718 0.375 29.125 C-3.3642723 29.32145914 -5.05413723 28.64981746 -7.9375 26.25 C-11.3525597 23.05292284 -12.85628504 20.29343463 -13.375 15.625 C-12.92177291 11.24380478 -11.82916989 9.35033277 -9 6 C-3.84210526 2 -3.84210526 2 0 2 C0 1.34 0 0.68 0 0 Z M-8 8 C-10.81725233 12.2258785 -10.79958384 16.03624688 -10 21 C-7.80977082 23.82424288 -6.16982793 25.41508603 -3 27 C-0.6670134 27.04022391 1.66706666 27.04320247 4 27 C3.525625 25.80375 3.05125 24.6075 2.5625 23.375 C0.42265099 17.06648288 0.2726348 10.60904361 0 4 C-3.33194465 4 -5.37996298 6.08955634 -8 8 Z " fill="#ECA976" transform="translate(74,86)"/>
<path d="M0 0 C4.4880435 2.24402175 8.19507281 4.9905971 12.1875 8 C12.92419922 8.5465625 13.66089844 9.093125 14.41992188 9.65625 C15.12052734 10.1821875 15.82113281 10.708125 16.54296875 11.25 C17.18258545 11.72953125 17.82220215 12.2090625 18.48120117 12.703125 C20 14 20 14 21 16 C14.07 16 7.14 16 0 16 C0 10.72 0 5.44 0 0 Z " fill="#E773F8" transform="translate(0,184)"/>
<path d="M0 0 C1.216875 0.495 2.43375 0.99 3.6875 1.5 C11.79564546 4.21552423 20.68317459 3.54731636 29 2 C21.70366842 10.54143936 7.42982203 11.10295497 -3 12 C-2.01 8.04 -1.02 4.08 0 0 Z " fill="#BF342B" transform="translate(82,116)"/>
<path d="M0 0 C-0.556875 0.391875 -1.11375 0.78375 -1.6875 1.1875 C-2.8321875 2.0846875 -2.8321875 2.0846875 -4 3 C-4.9075 3.70125 -5.815 4.4025 -6.75 5.125 C-9.47517996 8.60717439 -9.67073698 10.53205485 -9.43359375 14.84375 C-8.79285558 18.03012361 -7.33398654 19.80330678 -5 22 C-1.79826746 23.60086627 1.52577059 23.49917089 5 23 C7.8100346 21.20636089 9.50940468 19.98119065 11 17 C11.42062184 13.94147834 11.49622278 11.0512422 11 8 C8.64581624 5.06026719 8.64581624 5.06026719 6 3 C6 2.34 6 1.68 6 1 C9.01488424 1.89631694 10.71802222 2.67912874 12.8125 5.0625 C14.82654372 10.04460814 14.87400063 14.81499841 12.875 19.8125 C9.98257184 23.18699952 7.29653347 25.55550965 2.8203125 26.421875 C-1.31273999 26.67236303 -4.13791252 26.35578669 -7.4375 23.75 C-11.53815442 19.34929769 -12.45081341 16.16490296 -12.32421875 10.25390625 C-11.82304045 6.76981134 -10.25055134 4.63636014 -8 2 C-4.77208445 -0.1519437 -3.71599191 -0.20086443 0 0 Z " fill="#DEC48A" transform="translate(129,96)"/>
<path d="M0 0 C2.4375 0.6875 2.4375 0.6875 5 2 C6.24914458 5.85605501 5.86588154 8.89010777 5.0625 12.8125 C4.86785156 13.78832031 4.67320313 14.76414063 4.47265625 15.76953125 C4.31667969 16.50558594 4.16070312 17.24164063 4 18 C4.99 18.33 5.98 18.66 7 19 C7 19.33 7 19.66 7 20 C5.37509046 20.02698189 3.75005367 20.04638757 2.125 20.0625 C0.76761719 20.07990234 0.76761719 20.07990234 -0.6171875 20.09765625 C-3 20 -3 20 -5 19 C-5.3125 16.8125 -5.3125 16.8125 -5 14 C-4.175 13.2575 -3.35 12.515 -2.5 11.75 C0.28317115 8.68851173 0.34320596 8.11172171 0.3125 4.1875 C0.23271149 2.79006121 0.13657216 1.39303605 0 0 Z " fill="#F57C2F" transform="translate(119,118)"/>
<path d="M0 0 C0.68844492 10.74739021 0.68844492 10.74739021 -1.875 14.6875 C-2.57625 15.450625 -3.2775 16.21375 -4 17 C-4.66 17 -5.32 17 -6 17 C-7.72869779 13.54260443 -7.48966895 9.78024432 -7 6 C-3.25 0 -3.25 0 0 0 Z " fill="#F7934E" transform="translate(126,98)"/>
<path d="M0 0 C1.32 0 2.64 0 4 0 C3.52121172 2.56257122 3.04198207 5.12505859 2.5625 7.6875 C2.42779297 8.40873047 2.29308594 9.12996094 2.15429688 9.87304688 C1.45901155 13.58688798 0.75225298 17.29716254 0 21 C-1.32 20.34 -2.64 19.68 -4 19 C-4 16 -4 16 -2.5625 14 C-0.2349761 9.53115411 -0.25258667 4.9733444 0 0 Z " fill="#F27D32" transform="translate(126,98)"/>
<path d="M0 0 C0.33 1.32 0.66 2.64 1 4 C0.16855469 4.38091797 0.16855469 4.38091797 -0.6796875 4.76953125 C-1.76636719 5.28580078 -1.76636719 5.28580078 -2.875 5.8125 C-3.59429687 6.14894531 -4.31359375 6.48539062 -5.0546875 6.83203125 C-7.30542806 7.99467097 -7.30542806 7.99467097 -9 11 C-9.36268934 13.34923778 -9.50277147 15.66781915 -9.65625 18.0390625 C-9.7696875 18.68617187 -9.883125 19.33328125 -10 20 C-10.66 20.33 -11.32 20.66 -12 21 C-13.5547669 17.89046621 -13.28644437 15.43733239 -13 12 C-10.55536565 7.20475569 -7.69281036 4.59602275 -3 2 C-2.01 2 -1.02 2 0 2 C0 1.34 0 0.68 0 0 Z " fill="#CAAB7A" transform="translate(74,86)"/>
<path d="M0 0 C4.06170182 1.80520081 6.70697659 3.14880935 9 7 C9.328125 9.5078125 9.328125 9.5078125 9.25 12.125 C9.23453125 12.99382812 9.2190625 13.86265625 9.203125 14.7578125 C9 17 9 17 8 19 C7.34 19 6.68 19 6 19 C5.97421875 18.34773438 5.9484375 17.69546875 5.921875 17.0234375 C5.54297859 11.18498826 4.69271087 7.73128581 1 3 C0.67 2.01 0.34 1.02 0 0 Z " fill="#EC7B34" transform="translate(117,60)"/>
<path d="M0 0 C-0.556875 0.391875 -1.11375 0.78375 -1.6875 1.1875 C-2.8321875 2.0846875 -2.8321875 2.0846875 -4 3 C-4.9075 3.70125 -5.815 4.4025 -6.75 5.125 C-9.46692627 8.59662801 -9.6641238 10.47714421 -9.44140625 14.7734375 C-8.75243622 18.24877306 -7.23219656 20.27951044 -5 23 C-5.99 23 -6.98 23 -8 23 C-11.68659563 18.89207916 -12.6381837 15.53492338 -12.39453125 10.18359375 C-11.77792243 6.77087762 -10.22190343 4.60280116 -8 2 C-4.77208445 -0.1519437 -3.71599191 -0.20086443 0 0 Z " fill="#FACC80" transform="translate(129,96)"/>
<path d="M0 0 C-0.32157204 2.97454134 -0.62139742 4.59335278 -2.6875 6.8125 C-5.66989907 8.34400223 -7.68690226 8.35245721 -11 8 C-11.99 7.34 -12.98 6.68 -14 6 C-14 5.34 -14 4.68 -14 4 C-10.62182575 3.15545644 -8.32534757 2.89155081 -5 4 C-5 3.01 -5 2.02 -5 1 C-3 0 -3 0 0 0 Z " fill="#2D261D" transform="translate(104,93)"/>
<path d="M0 0 C0.86625 0.3403125 0.86625 0.3403125 1.75 0.6875 C1.09 2.6675 0.43 4.6475 -0.25 6.6875 C-5 7.8125 -5 7.8125 -7.25 6.6875 C-6.87492618 3.96821483 -6.40781339 2.84531339 -4.4375 0.875 C-2.25 -0.3125 -2.25 -0.3125 0 0 Z " fill="#C53A2B" transform="translate(133.25,86.3125)"/>
<path d="M0 0 C0.66 0 1.32 0 2 0 C0.93369328 2.13755006 -0.13801227 4.27204343 -1.21875 6.40234375 C-1.6415625 7.23894531 -2.064375 8.07554688 -2.5 8.9375 C-2.9228125 9.77152344 -3.345625 10.60554688 -3.78125 11.46484375 C-4.97138293 13.94047282 -6.01023748 16.43853126 -7 19 C-7.33 19 -7.66 19 -8 19 C-7.87144782 11.02976498 -5.36507517 5.93503697 0 0 Z " fill="#0057AC" transform="translate(112,38)"/>
<path d="M0 0 C-1.41409423 3.39529917 -3.02356228 5.05912817 -6 7.1875 C-7.051875 7.95126953 -7.051875 7.95126953 -8.125 8.73046875 C-10 10 -10 10 -12 11 C-10.53404095 5.46193247 -5.96377539 0 0 0 Z " fill="#E97C37" transform="translate(92,58)"/>
<path d="M0 0 C1 3 1 3 0.22265625 4.71875 C-0.16019531 5.3065625 -0.54304688 5.894375 -0.9375 6.5 C-2.60977723 9.08494379 -3 9.78779497 -3 13 C-2.34 13.33 -1.68 13.66 -1 14 C-1 14.66 -1 15.32 -1 16 C-4.74438202 14.5505618 -4.74438202 14.5505618 -5.8125 12.25 C-6.08213839 9.01433935 -4.79971706 7.44445912 -3.0625 4.75 C-2.49660156 3.85796875 -1.93070312 2.9659375 -1.34765625 2.046875 C-0.90292969 1.37140625 -0.45820312 0.6959375 0 0 Z " fill="#C4382A" transform="translate(96,76)"/>
<path d="M0 0 C1.32 0 2.64 0 4 0 C3.34 3.63 2.68 7.26 2 11 C1.34 11 0.68 11 0 11 C0 7.37 0 3.74 0 0 Z " fill="#D76A37" transform="translate(126,98)"/>
<path d="M0 0 C0.33 0 0.66 0 1 0 C1 3.63 1 7.26 1 11 C0.01 11.495 0.01 11.495 -1 12 C-2.50934217 8.98131566 -2.17510672 6.32702771 -2 3 C-1.34 2.01 -0.68 1.02 0 0 Z " fill="#B4A581" transform="translate(63,95)"/>
<path d="M0 0 C3.10331257 0.92260644 4.74711947 1.70497271 6.875 4.1875 C8.32502401 7.81256003 7.81163525 10.23696384 7 14 C6.67 14 6.34 14 6 14 C5.85304687 13.07767578 5.85304687 13.07767578 5.703125 12.13671875 C4.90270932 7.03099222 4.90270932 7.03099222 1.875 3.0625 C1.25625 2.711875 0.6375 2.36125 0 2 C0 1.34 0 0.68 0 0 Z " fill="#CFBF8F" transform="translate(135,97)"/>
<path d="M0 0 C3.33537489 1.11179163 4.63707344 2.47411298 7 5 C1.375 5.25 1.375 5.25 -2 3 C-2 2.34 -2 1.68 -2 1 C-1.34 0.67 -0.68 0.34 0 0 Z " fill="#4F3D2E" transform="translate(92,96)"/>
<path d="M0 0 C0.886875 0.78375 1.77375 1.5675 2.6875 2.375 C5.30720519 4.57156991 7.71715601 5.93790341 11 7 C11 7.33 11 7.66 11 8 C4.66666667 7.51282051 4.66666667 7.51282051 1.5625 5.125 C0 3 0 3 0 0 Z " fill="#E6B66B" transform="translate(63,106)"/>
<path d="M0 0 C0.66 0 1.32 0 2 0 C2.33 1.32 2.66 2.64 3 4 C1.02 4.66 -0.96 5.32 -3 6 C-2.42655063 3.13275314 -2.1385485 2.1385485 0 0 Z " fill="#D5502D" transform="translate(129,87)"/>
<path d="M0 0 C0.33 0.66 0.66 1.32 1 2 C1.99 2.33 2.98 2.66 4 3 C4 3.33 4 3.66 4 4 C1.03 4 -1.94 4 -5 4 C-5 3.34 -5 2.68 -5 2 C-3.35 2 -1.7 2 0 2 C0 1.34 0 0.68 0 0 Z " fill="#B34337" transform="translate(122,134)"/>
<path d="M0 0 C0.99 0.66 1.98 1.32 3 2 C1 4 1 4 -1.625 4.125 C-2.40875 4.08375 -3.1925 4.0425 -4 4 C-3.67 3.01 -3.34 2.02 -3 1 C-2.01 0.67 -1.02 0.34 0 0 Z " fill="#9D9190" transform="translate(98,94)"/>
<path d="M0 0 C0.99 0 1.98 0 3 0 C1.95125002 2.62187494 1.35068687 3.79371361 -1.125 5.25 C-1.74375 5.4975 -2.3625 5.745 -3 6 C-1.125 1.125 -1.125 1.125 0 0 Z " fill="#D87C44" transform="translate(89,58)"/>
</svg>
