<?xml version="1.0" encoding="UTF-8"?>
<svg version="1.1" xmlns="http://www.w3.org/2000/svg" width="199" height="200">
<path d="M0 0 C65.67 0 131.34 0 199 0 C199 65.67 199 131.34 199 199 C133.33 199 67.66 199 0 199 C0 133.33 0 67.66 0 0 Z " fill="#7F86CC" transform="translate(0,1)"/>
<path d="M0 0 C0.80649994 -0.00287018 1.61299988 -0.00574036 2.44393921 -0.00869751 C4.14671533 -0.01073194 5.84951515 -0.00524563 7.55224609 0.00732422 C10.120018 0.02326111 12.68618559 0.00752066 15.25390625 -0.01171875 C26.96786929 -0.02714121 40.33947112 -0.0132408 49.5234375 8.3984375 C54.26129342 13.78043842 54.17749723 18.56423207 54.0859375 25.3984375 C54.08078125 26.52967041 54.075625 27.66090332 54.0703125 28.82641602 C53.78939612 43.07090946 52.00501039 57.22125675 50.30297852 71.35351562 C48.91418143 82.95714573 47.8818242 94.15025696 49.0234375 105.8359375 C50.47112049 123.65521197 48.25516993 138.50772952 37.41796875 153.265625 C31.95923125 159.62288035 25.67027647 166.77648024 17 167.82421875 C13.80735016 167.83460698 10.69934283 167.71204571 7.5234375 167.3984375 C7.68457031 166.28984375 7.84570312 165.18125 8.01171875 164.0390625 C10.29124383 145.68989424 9.09497308 125.74370112 -0.1875 109.3828125 C-1.75674602 105.74977019 -1.47322581 103.85631636 -0.6640625 100.0234375 C-0.45136719 98.96382813 -0.23867187 97.90421875 -0.01953125 96.8125 C0.15964844 96.01585937 0.33882812 95.21921875 0.5234375 94.3984375 C-0.23453125 94.15996094 -0.9925 93.92148438 -1.7734375 93.67578125 C-4.92210352 92.18790005 -5.90214508 90.88480647 -7.7265625 87.9609375 C-8.22671875 87.17847656 -8.726875 86.39601563 -9.2421875 85.58984375 C-10.4765625 83.3984375 -10.4765625 83.3984375 -11.4765625 80.3984375 C-12.4665625 81.3884375 -12.4665625 81.3884375 -13.4765625 82.3984375 C-14.4665625 82.3984375 -15.4565625 82.3984375 -16.4765625 82.3984375 C-15.6015625 76.6484375 -15.6015625 76.6484375 -14.4765625 74.3984375 C-14.32012078 71.84737721 -14.21834861 69.31925087 -14.16015625 66.765625 C-14.1289846 65.63787155 -14.1289846 65.63787155 -14.09718323 64.48733521 C-14.03173545 62.08279665 -13.97282512 59.67814783 -13.9140625 57.2734375 C-13.87087273 55.64451979 -13.82725829 54.01561328 -13.78320312 52.38671875 C-13.67605899 48.39073835 -13.57477817 44.39464691 -13.4765625 40.3984375 C-10.0115625 39.9034375 -10.0115625 39.9034375 -6.4765625 39.3984375 C-6.4765625 38.7384375 -6.4765625 38.0784375 -6.4765625 37.3984375 C-8.4565625 37.3984375 -10.4365625 37.3984375 -12.4765625 37.3984375 C-12.42435547 36.15126953 -12.42435547 36.15126953 -12.37109375 34.87890625 C-12.33048828 33.24888672 -12.33048828 33.24888672 -12.2890625 31.5859375 C-12.25425781 30.50699219 -12.21945313 29.42804687 -12.18359375 28.31640625 C-12.20402605 25.40056208 -12.20402605 25.40056208 -13.9140625 23.6484375 C-14.4296875 23.2359375 -14.9453125 22.8234375 -15.4765625 22.3984375 C-17.74176181 18.22570193 -18.05182189 14.05529923 -17.4765625 9.3984375 C-16.1855904 5.59724188 -15.28841456 3.91398424 -11.88916016 1.75537109 C-7.8464393 0.14788487 -4.28129835 -0.03409298 0 0 Z " fill="#CA8D7C" transform="translate(79.4765625,32.6015625)"/>
<path d="M0 0 C4.33949489 8.58068407 7.26836106 16.51958826 9 26 C9.185625 26.90105469 9.37125 27.80210937 9.5625 28.73046875 C10.17203351 33.28564332 10.18426707 37.78423484 10.1875 42.375 C10.19974609 43.2825 10.21199219 44.19 10.22460938 45.125 C10.22654297 46.01960938 10.22847656 46.91421875 10.23046875 47.8359375 C10.23457764 48.63563965 10.23868652 49.4353418 10.24291992 50.25927734 C9.92001129 53.90246556 8.88706689 57.45173244 8 61 C-20.71 61 -49.42 61 -79 61 C-79 46.71823871 -65.23067489 32.25969934 -55.75 22.25 C-40.60589222 7.63763758 -21.157301 -0.70524337 0 0 Z " fill="#BCD2DD" transform="translate(79,139)"/>
<path d="M0 0 C22.51903509 2.16778068 42.53108037 9.18243623 57.5625 27 C60.76300022 31.32603499 63.36360766 35.97163389 65.9375 40.6875 C66.33976807 41.41259766 66.74203613 42.13769531 67.15649414 42.88476562 C67.52637451 43.58666016 67.89625488 44.28855469 68.27734375 45.01171875 C68.60984131 45.63522217 68.94233887 46.25872559 69.28491211 46.90112305 C70 49 70 49 70 55 C37.33 55 4.66 55 -29 55 C-26.17051206 52.17051206 -23.92513193 50.17037155 -20.75 47.9375 C-10.00470634 39.64877841 -2.81724227 26.41800982 -1 13 C-0.57835222 8.6707559 -0.25502178 4.34208134 0 0 Z " fill="#BCD1DB" transform="translate(129,145)"/>
<path d="M0 0 C0.80649994 -0.00287018 1.61299988 -0.00574036 2.44393921 -0.00869751 C4.14671533 -0.01073194 5.84951515 -0.00524563 7.55224609 0.00732422 C10.120018 0.02326111 12.68618559 0.00752066 15.25390625 -0.01171875 C26.96786929 -0.02714121 40.33947112 -0.0132408 49.5234375 8.3984375 C54.26077609 13.77985074 54.17861125 18.56452912 54.0859375 25.3984375 C54.07933105 26.52169434 54.07272461 27.64495117 54.06591797 28.80224609 C53.807576 41.26277783 52.47631058 53.63902514 51.1484375 66.0234375 C51.03774933 67.07208984 50.92706116 68.12074219 50.8130188 69.20117188 C50.49185106 72.19815096 50.15556152 75.19295592 49.8125 78.1875 C49.71340836 79.10294586 49.61431671 80.01839172 49.51222229 80.96157837 C49.25421154 83.11697792 48.89879847 85.26034936 48.5234375 87.3984375 C47.5334375 87.8934375 47.5334375 87.8934375 46.5234375 88.3984375 C41.99056693 81.35769008 38.55294697 74.20009463 35.5234375 66.3984375 C36.4721875 65.9653125 37.4209375 65.5321875 38.3984375 65.0859375 C41.72385687 63.60541549 41.72385687 63.60541549 43.5234375 60.3984375 C44.1886124 56.19855412 44.23392078 52.5825763 42.0234375 48.8984375 C38.5022012 46.78569572 35.60920966 46.67082231 31.5234375 46.3984375 C31.35328125 45.38523438 31.183125 44.37203125 31.0078125 43.328125 C30.76375637 41.97642949 30.51892318 40.62487412 30.2734375 39.2734375 C30.16386719 38.60828125 30.05429688 37.943125 29.94140625 37.2578125 C29.06133623 32.5332261 27.63502745 29.19033923 24.5234375 25.3984375 C18.59689057 21.50979092 11.47137291 20.25524685 4.5234375 21.3984375 C2.13502456 22.27157862 -0.09513342 23.30196009 -2.375 24.42578125 C-5.45865507 25.85297477 -8.08617651 26.3984375 -11.4765625 26.3984375 C-14.86136639 24.01992666 -16.39819755 21.35244232 -17.4765625 17.3984375 C-17.91813075 11.83467753 -17.77471551 8.12579015 -14.4765625 3.3984375 C-9.7146116 0.37447736 -5.50438667 -0.04383272 0 0 Z " fill="#020B13" transform="translate(79.4765625,32.6015625)"/>
<path d="M0 0 C13.365 3.96 13.365 3.96 27 8 C24 20 24 20 23 21 C20.85441173 21.08775605 18.70595579 21.10695219 16.55859375 21.09765625 C15.25341797 21.09443359 13.94824219 21.09121094 12.60351562 21.08789062 C11.2148431 21.07953401 9.82617123 21.07106905 8.4375 21.0625 C7.04492344 21.05748666 5.65234519 21.05292347 4.25976562 21.04882812 C0.8398013 21.03699434 -2.58007844 21.0205088 -6 21 C-5.27591567 16.44924211 -4.27292151 12.11932601 -3 7.6875 C-2.649375 6.45386719 -2.29875 5.22023437 -1.9375 3.94921875 C-1 1 -1 1 0 0 Z " fill="#BDD0D9" transform="translate(135,179)"/>
<path d="M0 0 C3.19018697 1.59509348 3.81712743 4.81193703 5 8 C6.35622372 12.14005136 7.26445487 15.63649456 7 20 C3.27091669 19.49800802 -0.36147686 18.95792977 -4 18 C-4.23783203 19.0209375 -4.23783203 19.0209375 -4.48046875 20.0625 C-6.59364999 28.84212595 -9.24120247 37.40738161 -12 46 C-10.46666016 46.18369141 -10.46666016 46.18369141 -8.90234375 46.37109375 C-5.25082942 46.95957604 -2.04752444 47.84861508 1.4375 49.0625 C2.48808594 49.42472656 3.53867188 49.78695312 4.62109375 50.16015625 C5.40613281 50.43730469 6.19117187 50.71445313 7 51 C6.505 51.99 6.505 51.99 6 53 C4.89140625 52.6390625 3.7828125 52.278125 2.640625 51.90625 C1.17718034 51.43719723 -0.28636674 50.96846393 -1.75 50.5 C-2.47960937 50.26152344 -3.20921875 50.02304688 -3.9609375 49.77734375 C-4.66992188 49.55175781 -5.37890625 49.32617188 -6.109375 49.09375 C-6.75874023 48.88427734 -7.40810547 48.67480469 -8.07714844 48.45898438 C-10.31897028 47.84521532 -10.31897028 47.84521532 -14 48 C-14 47.34 -14 46.68 -14 46 C-14.53625 45.91363281 -15.0725 45.82726562 -15.625 45.73828125 C-22.14997221 44.56850827 -28.34988037 42.72823814 -34.640625 40.67700195 C-38.24547422 39.43519089 -38.24547422 39.43519089 -42 39 C-42.99 41.64 -43.98 44.28 -45 47 C-46.10191901 42.59232396 -45.58706842 41.1077065 -44 37 C-45.216875 36.7525 -46.43375 36.505 -47.6875 36.25 C-53.90381903 34.87962935 -59.93879942 32.9298413 -66 31 C-66 30.34 -66 29.68 -66 29 C-58.59684417 30.79354806 -51.27235389 32.73141173 -44 35 C-39.28628336 21.06782464 -39.28628336 21.06782464 -35 7 C-28.99411813 7.64817578 -23.50095151 9.25061396 -17.75 11.0625 C-15.97514861 11.61969113 -14.19914983 12.1732442 -12.421875 12.72265625 C-11.64424805 12.96765869 -10.86662109 13.21266113 -10.06542969 13.46508789 C-7.87156452 14.12535598 -7.87156452 14.12535598 -5 14 C-4.72285156 13.07316406 -4.44570312 12.14632812 -4.16015625 11.19140625 C-3.79792969 9.99386719 -3.43570313 8.79632813 -3.0625 7.5625 C-2.70285156 6.36753906 -2.34320313 5.17257813 -1.97265625 3.94140625 C-1 1 -1 1 0 0 Z M-34 9 C-35.17547401 12.91407837 -36.33884223 16.83165293 -37.5 20.75 C-37.83386719 21.86117187 -38.16773438 22.97234375 -38.51171875 24.1171875 C-38.98544922 25.72207031 -38.98544922 25.72207031 -39.46875 27.359375 C-39.76201172 28.34389648 -40.05527344 29.32841797 -40.35742188 30.34277344 C-41.1566986 33.1923529 -41.1566986 33.1923529 -41 37 C-36.71202409 38.36605328 -32.41909521 39.71581779 -28.125 41.0625 C-26.90167969 41.45244141 -25.67835937 41.84238281 -24.41796875 42.24414062 C-23.25136719 42.60830078 -22.08476563 42.97246094 -20.8828125 43.34765625 C-19.80402832 43.68804932 -18.72524414 44.02844238 -17.61376953 44.37915039 C-15.03788918 45.28636541 -15.03788918 45.28636541 -13 44 C-11.49328785 40.34932828 -10.45260884 36.52903812 -9.3125 32.75 C-8.81266602 31.17412109 -8.81266602 31.17412109 -8.30273438 29.56640625 C-7.99271484 28.54933594 -7.68269531 27.53226563 -7.36328125 26.484375 C-7.07751221 25.55334961 -6.79174316 24.62232422 -6.49731445 23.66308594 C-5.95732972 20.77150347 -6.23552313 18.81807161 -7 16 C-10.74719776 14.82419832 -14.49817925 13.66095767 -18.25 12.5 C-19.31347656 12.16613281 -20.37695312 11.83226562 -21.47265625 11.48828125 C-22.49746094 11.17246094 -23.52226563 10.85664063 -24.578125 10.53125 C-25.52075195 10.23798828 -26.46337891 9.94472656 -27.43457031 9.64257812 C-30.20590908 8.83801999 -30.20590908 8.83801999 -34 9 Z " fill="#D5E3EA" transform="translate(80,144)"/>
<path d="M0 0 C3.63 0.66 7.26 1.32 11 2 C9.62565868 9.78793413 7.55333318 16.34000045 5 24 C-3.91 24 -12.82 24 -22 24 C-19.17051206 21.17051206 -16.92513193 19.17037155 -13.75 16.9375 C-7.92573866 12.50180428 -3.27878136 6.55756272 0 0 Z " fill="#BDD2DD" transform="translate(122,176)"/>
<path d="M0 0 C0.66 0 1.32 0 2 0 C1.37223479 6.59153473 -1.44534042 10.73141037 -6.1875 15.1875 C-15.09828191 22.30491699 -25.17682648 21.33550595 -36 21 C-35.34 17.37 -34.68 13.74 -34 10 C-32.53240234 10.05220703 -32.53240234 10.05220703 -31.03515625 10.10546875 C-20.22369065 10.32871435 -12.65191747 9.16767681 -3.62890625 2.98828125 C-2 2 -2 2 0 2 C0 1.34 0 0.68 0 0 Z " fill="#B28075" transform="translate(114,118)"/>
<path d="M0 0 C7.425 0.99 7.425 0.99 15 2 C14.01 2.495 14.01 2.495 13 3 C12.57810178 5.17980746 12.16329618 7.36110995 11.7734375 9.546875 C10.06555469 17.17196795 7.42338998 24.5774156 5 32 C1.37 31.34 -2.26 30.68 -6 30 C-5.38125 28.39125 -4.7625 26.7825 -4.125 25.125 C-1.35621423 16.93646336 -0.72394887 8.57307878 0 0 Z " fill="#BDD2DD" transform="translate(129,145)"/>
<path d="M0 0 C4.29543456 0.47727051 6.04499407 1.62699644 10 4 C7.36 13.24 4.72 22.48 2 32 C0.02 31.34 -1.96 30.68 -4 30 C-3.59669841 25.88768965 -3.18765044 21.77599639 -2.77319336 17.66479492 C-2.63292648 16.26521427 -2.49424998 14.86547331 -2.35717773 13.46557617 C-2.1602412 11.45710788 -1.95716886 9.44924418 -1.75390625 7.44140625 C-1.63345947 6.23170166 -1.5130127 5.02199707 -1.38891602 3.77563477 C-1 1 -1 1 0 0 Z " fill="#BCD2DD" transform="translate(161,154)"/>
<path d="M0 0 C0.66 0 1.32 0 2 0 C-0.17391607 10.16261578 -2.98817045 20.05977203 -6 30 C-5.08734375 30.23783203 -5.08734375 30.23783203 -4.15625 30.48046875 C4.31075679 32.73418673 12.65093056 35.34966804 21 38 C21.10183594 37.06027344 21.20367187 36.12054688 21.30859375 35.15234375 C22.02478953 30.13897328 23.56507822 25.3882978 25.0625 20.5625 C25.34416016 19.64017578 25.62582031 18.71785156 25.91601562 17.76757812 C26.60607599 15.51026202 27.30083123 13.25450816 28 11 C28.66 11 29.32 11 30 11 C27.73529777 20.49247529 25.27787201 29.7940616 22 39 C22.99 39.495 22.99 39.495 24 40 C23.01 40 22.02 40 21 40 C20.86722656 40.69867188 20.73445313 41.39734375 20.59765625 42.1171875 C20.42105469 43.02726562 20.24445313 43.93734375 20.0625 44.875 C19.88847656 45.77992188 19.71445313 46.68484375 19.53515625 47.6171875 C19 50 19 50 18 52 C17.01 51.505 17.01 51.505 16 51 C17.32 47.04 18.64 43.08 20 39 C19.06027344 38.89816406 18.12054688 38.79632813 17.15234375 38.69140625 C12.13892838 37.97520405 7.38809567 36.43446965 2.5625 34.9375 C-0.593125 33.968125 -3.74875 32.99875 -7 32 C-8.98 38.6 -10.96 45.2 -13 52 C-13.66 52 -14.32 52 -15 52 C-13.47536437 44.50387484 -11.31993846 37.28640866 -9 30 C-10.27875 29.87625 -11.5575 29.7525 -12.875 29.625 C-16.75 29.25 -16.75 29.25 -19 27 C-11.375 27.875 -11.375 27.875 -8 29 C-7.73445312 27.73285156 -7.46890625 26.46570313 -7.1953125 25.16015625 C-6.01234377 19.83679698 -4.47316341 14.64873619 -2.875 9.4375 C-2.59785156 8.52419922 -2.32070312 7.61089844 -2.03515625 6.66992188 C-1.35973591 4.44569283 -0.68131033 2.22243047 0 0 Z " fill="#D6E3EA" transform="translate(142,148)"/>
<path d="M0 0 C3.81044483 1.64960223 5.55348164 4.08666699 7.375 7.8125 C7.58125 8.534375 7.7875 9.25625 8 10 C3.40191871 9.46105575 0.13215631 8.23428472 -3.875 5.9375 C-4.84179688 5.38964844 -5.80859375 4.84179688 -6.8046875 4.27734375 C-7.52914062 3.85582031 -8.25359375 3.43429688 -9 3 C-9.68707031 3.7940625 -10.37414062 4.588125 -11.08203125 5.40625 C-11.99174809 6.43788765 -12.90192854 7.4691166 -13.8125 8.5 C-14.26431641 9.02464844 -14.71613281 9.54929687 -15.18164062 10.08984375 C-16.39249865 11.45095423 -17.69240937 12.73153413 -19 14 C-19.99 14 -20.98 14 -22 14 C-21.52353853 8.99715458 -20.06711438 5.96920685 -17 2 C-11.90512294 -1.3965847 -5.93963639 -0.66829434 0 0 Z " fill="#0D090A" transform="translate(85,101)"/>
<path d="M0 0 C1.24142712 4.96570849 0.37261666 7.15547062 -1 12 C0.299375 12.226875 1.59875 12.45375 2.9375 12.6875 C10.76909046 14.2357365 18.36980154 16.68084455 26 19 C26.66 17.35 27.32 15.7 28 14 C28.93423645 17.01031744 29.04449911 17.86650268 28 21 C28.9075 21.0825 29.815 21.165 30.75 21.25 C36.37374653 22.0268887 41.66921705 24.11803229 47 26 C46.67 26.66 46.34 27.32 46 28 C44.89140625 27.6390625 43.7828125 27.278125 42.640625 26.90625 C41.17718034 26.43719723 39.71363326 25.96846393 38.25 25.5 C37.52039063 25.26152344 36.79078125 25.02304688 36.0390625 24.77734375 C35.33007812 24.55175781 34.62109375 24.32617188 33.890625 24.09375 C33.24125977 23.88427734 32.59189453 23.67480469 31.92285156 23.45898438 C29.68102972 22.84521532 29.68102972 22.84521532 26 23 C26 22.34 26 21.68 26 21 C25.46375 20.91363281 24.9275 20.82726562 24.375 20.73828125 C17.85002779 19.56850827 11.65011963 17.72823814 5.359375 15.67700195 C1.75452578 14.43519089 1.75452578 14.43519089 -2 14 C-2.99 16.64 -3.98 19.28 -5 22 C-6.10191901 17.59232396 -5.58706842 16.1077065 -4 12 C-5.216875 11.7525 -6.43375 11.505 -7.6875 11.25 C-13.90381903 9.87962935 -19.93879942 7.9298413 -26 6 C-26 5.34 -26 4.68 -26 4 C-18.59391559 5.79425756 -11.28141608 7.75132739 -4 10 C-2.68 6.7 -1.36 3.4 0 0 Z " fill="#D6E3EB" transform="translate(40,169)"/>
<path d="M0 0 C5.39765051 1.15051961 10.7104901 2.41314703 16 4 C17.62808594 4.433125 17.62808594 4.433125 19.2890625 4.875 C20.47242187 5.205 21.65578125 5.535 22.875 5.875 C24.00679687 6.18179688 25.13859375 6.48859375 26.3046875 6.8046875 C27.63886719 7.39636719 27.63886719 7.39636719 29 8 C29.33 9.32 29.66 10.64 30 12 C22.08 12 14.16 12 6 12 C6.33 9.69 6.66 7.38 7 5 C3.535 3.02 3.535 3.02 0 1 C0 0.67 0 0.34 0 0 Z " fill="#BDD3DE" transform="translate(57,188)"/>
<path d="M0 0 C0.66 0 1.32 0 2 0 C2.84850459 1.53336901 3.67814945 3.07718146 4.5 4.625 C4.9640625 5.48351562 5.428125 6.34203125 5.90625 7.2265625 C7 10 7 10 7 16 C3.04 16 -0.92 16 -5 16 C-4.67 14.35 -4.34 12.7 -4 11 C-4.85658203 10.85304687 -4.85658203 10.85304687 -5.73046875 10.703125 C-13.00770534 9.36105911 -19.96345483 7.27198794 -27 5 C-26.67 4.34 -26.34 3.68 -26 3 C-25.34515625 3.18175781 -24.6903125 3.36351562 -24.015625 3.55078125 C-17.03551046 5.47327042 -10.0301819 7.27005995 -3 9 C-2.01 6.03 -1.02 3.06 0 0 Z " fill="#D6E3EB" transform="translate(192,184)"/>
<path d="M0 0 C0.33 0 0.66 0 1 0 C1 6.6 1 13.2 1 20 C-6 20 -6 20 -9 18 C-9 10.51378167 -4.6718076 5.56790863 0 0 Z " fill="#A56560" transform="translate(77,78)"/>
<path d="M0 0 C1.88801974 2.83202961 2.96101651 5.26025619 4.125 8.4375 C4.65480469 9.85869141 4.65480469 9.85869141 5.1953125 11.30859375 C6 14 6 14 6 18 C2.7 17.01 -0.6 16.02 -4 15 C-2 4.28571429 -2 4.28571429 0 0 Z " fill="#BDD1DB" transform="translate(81,145)"/>
<path d="M0 0 C1.65 0.33 3.3 0.66 5 1 C4.01 4.96 3.02 8.92 2 13 C0.68 13.33 -0.64 13.66 -2 14 C-1.34 9.38 -0.68 4.76 0 0 Z " fill="#BDD3DE" transform="translate(157,186)"/>
<path d="M0 0 C6 8 6 8 6 13 C3.36 12.34 0.72 11.68 -2 11 C-1.34 7.37 -0.68 3.74 0 0 Z " fill="#BACEDD" transform="translate(193,184)"/>
<path d="M0 0 C1.93922422 0.45098238 3.87633594 0.91105559 5.8125 1.375 C6.89144531 1.63023437 7.97039063 1.88546875 9.08203125 2.1484375 C12 3 12 3 15 5 C6.585 5.495 6.585 5.495 -2 6 C-1.34 4.02 -0.68 2.04 0 0 Z " fill="#BDD3DE" transform="translate(38,182)"/>
<path d="M0 0 C5.0302076 0.52537724 10.01885239 1.10594786 15 2 C15 2.99 15 3.98 15 5 C9.76119922 4.44854729 5.02649303 3.57077907 0 2 C0 1.34 0 0.68 0 0 Z " fill="#0F0B09" transform="translate(83,70)"/>
<path d="M0 0 C-0.33 1.65 -0.66 3.3 -1 5 C-4.01031744 5.93423645 -4.86650268 6.04449911 -8 5 C-7 2 -7 2 -5.125 0.8125 C-3 0 -3 0 0 0 Z " fill="#C8D9E4" transform="translate(48,146)"/>
<path d="M0 0 C4.455 0.99 4.455 0.99 9 2 C10.10191901 6.40767604 9.58706842 7.8922935 8 12 C7.34 11.67 6.68 11.34 6 11 C6.33 9.02 6.66 7.04 7 5 C3.535 3.02 3.535 3.02 0 1 C0 0.67 0 0.34 0 0 Z " fill="#C4D7E0" transform="translate(57,188)"/>
<path d="M0 0 C4.455 0.99 4.455 0.99 9 2 C9 2.66 9 3.32 9 4 C5.7 4 2.4 4 -1 4 C-0.67 2.68 -0.34 1.36 0 0 Z " fill="#BED3DF" transform="translate(190,196)"/>
<path d="M0 0 C2.31 0 4.62 0 7 0 C7 0.66 7 1.32 7 2 C4.69 2.33 2.38 2.66 0 3 C0 2.01 0 1.02 0 0 Z " fill="#1B1516" transform="translate(66,70)"/>
<path d="M0 0 C1.65 1.65 3.3 3.3 5 5 C3.02 5 1.04 5 -1 5 C-0.67 3.35 -0.34 1.7 0 0 Z " fill="#B3CCD6" transform="translate(66,195)"/>
<path d="M0 0 C0.94875 0.04125 1.8975 0.0825 2.875 0.125 C2.875 1.115 2.875 2.105 2.875 3.125 C0.235 2.795 -2.405 2.465 -5.125 2.125 C-3.125 0.125 -3.125 0.125 0 0 Z " fill="#32231F" transform="translate(95.125,71.875)"/>
</svg>
